<svg preserveAspectRatio="none" width="100%" height="100%" overflow="visible" style="display: block;" viewBox="0 0 20 20" fill="none" xmlns="http://www.w3.org/2000/svg">
<g id="Group 6">
<circle id="Ellipse 167" cx="6" cy="7.5" r="1" fill="var(--fill-0, #B8A676)"/>
<circle id="Ellipse 168" cx="10" cy="7.5" r="1" fill="var(--fill-0, #B8A676)"/>
<circle id="Ellipse 169" cx="14" cy="7.5" r="1" fill="var(--fill-0, #B8A676)"/>
<path id="Path_517" d="M15.3405 20C15.1254 20 14.9104 19.9281 14.767 19.7122L10.8244 15.1799H3.22581C1.43369 15.1799 0 13.741 0 11.9424V3.23741C0 1.43885 1.43369 0 3.22581 0H16.7742C18.5663 0 20 1.43885 20 3.23741V12.0144C20 13.8129 18.5663 15.2518 16.7742 15.2518H16.129V19.2806C16.129 19.6403 15.7706 20 15.3405 20ZM3.22581 1.51079C2.29391 1.51079 1.50538 2.30216 1.50538 3.23741V12.0144C1.50538 12.9496 2.29391 13.741 3.22581 13.741H11.2545C11.4695 13.741 11.6846 13.8129 11.828 14.0288L14.6953 17.2662V14.4604C14.6953 14.0288 15.0538 13.741 15.4122 13.741H16.7742C17.7061 13.741 18.4946 12.9496 18.4946 12.0144V3.23741C18.4946 2.30216 17.7061 1.51079 16.7742 1.51079H3.22581Z" fill="var(--fill-0, #3A4246)"/>
</g>
</svg>
