<svg preserveAspectRatio="none" width="100%" height="100%" overflow="visible" style="display: block;" viewBox="0 0 18.5 19.3947" fill="none" xmlns="http://www.w3.org/2000/svg">
<g id="Group 54649">
<path id="Vector" d="M3.43435 18.6447H15.9605C16.4351 18.6447 16.8903 18.4562 17.2259 18.1206C17.5615 17.785 17.75 17.3299 17.75 16.8553V5.22368L13.2764 0.75H5.22381C4.74922 0.75 4.29406 0.938533 3.95847 1.27412C3.62289 1.60972 3.43435 2.06488 3.43435 2.53947V4.32895M12.3816 0.75V4.32895C12.3816 4.80355 12.5702 5.25871 12.9058 5.5943C13.2413 5.92989 13.6965 6.11842 14.1711 6.11842H17.75" stroke="var(--stroke-0, #3A4246)" stroke-width="1.5" stroke-linecap="round" stroke-linejoin="round"/>
<path id="Icon" d="M3.43418 7.90781V15.0657M3.43418 15.0657L6.11837 12.3307M3.43418 15.0657L0.75 12.3307" stroke="var(--stroke-0, #B8A676)" stroke-width="1.5" stroke-linecap="round" stroke-linejoin="round"/>
</g>
</svg>
