<svg preserveAspectRatio="none" width="100%" height="100%" overflow="visible" style="display: block;" viewBox="0 0 16.7 17.75" fill="none" xmlns="http://www.w3.org/2000/svg">
<g id="Group 54628">
<path id="Vector" d="M15.7 8.6125V15.092C15.7 15.5318 15.5279 15.9535 15.2216 16.2644C14.9153 16.5753 14.4999 16.75 14.0667 16.75H2.63333C2.20015 16.75 1.7847 16.5753 1.47839 16.2644C1.17208 15.9535 1 15.5318 1 15.092V7.63126C0.999943 7.39008 1.05172 7.1518 1.15173 6.93303C1.25173 6.71425 1.39755 6.52026 1.57902 6.36458L7.29568 1.39155C7.58074 1.14706 7.93969 1.00902 8.31279 1.00043C8.68589 0.991831 9.05064 1.11319 9.34633 1.3443L11.675 3.1M10.8 16.7499V10.1181C10.8 9.89828 10.714 9.68742 10.5608 9.53196C10.4076 9.3765 10.1999 9.28916 9.98333 9.28916H6.71667C6.50007 9.28916 6.29235 9.3765 6.1392 9.53196C5.98604 9.68742 5.9 9.89828 5.9 10.1181V16.7499" stroke="var(--stroke-0, #B3B09E)" stroke-width="2" stroke-linecap="round" stroke-linejoin="round"/>
<g id="_3002786_gear_preferences_settings_icon">
<path id="Ellipse_133" d="M14.45 5.61059C14.6077 5.61059 14.7355 5.48273 14.7355 5.32501C14.7355 5.16729 14.6077 5.03944 14.45 5.03944C14.2922 5.03944 14.1644 5.16729 14.1644 5.32501C14.1644 5.48273 14.2922 5.61059 14.45 5.61059Z" fill="var(--fill-0, #B8A676)"/>
<path id="Ellipse_134" d="M14.4499 6.35047C15.0163 6.35047 15.4754 5.89134 15.4754 5.32499C15.4754 4.75863 15.0163 4.29951 14.4499 4.29951C13.8836 4.29951 13.4245 4.75863 13.4245 5.32499C13.4245 5.89134 13.8836 6.35047 14.4499 6.35047Z" stroke="var(--stroke-0, #B8A676)" stroke-linecap="round" stroke-linejoin="round"/>
<path id="Path_476" d="M13.5932 6.85674L13.9567 7.01251L14.3721 6.36347L13.749 6.10386L13.5932 6.85674Z" fill="var(--fill-0, #B8A676)" stroke="var(--stroke-0, #B8A676)" stroke-linecap="round" stroke-linejoin="round"/>
<path id="Path_477" d="M12.7625 5.80526L12.9182 6.16872L13.6711 6.01296L13.4115 5.38988L12.7625 5.80526Z" fill="var(--fill-0, #B8A676)" stroke="var(--stroke-0, #B8A676)" stroke-linecap="round" stroke-linejoin="round"/>
<path id="Path_478" d="M12.9182 4.46827L12.7625 4.83173L13.4115 5.24712L13.6711 4.62404L12.9182 4.46827Z" fill="var(--fill-0, #B8A676)" stroke="var(--stroke-0, #B8A676)" stroke-linecap="round" stroke-linejoin="round"/>
<path id="Path_479" d="M13.9567 3.6375L13.5932 3.79327L13.749 4.54615L14.3721 4.28654L13.9567 3.6375Z" fill="var(--fill-0, #B8A676)" stroke="var(--stroke-0, #B8A676)" stroke-linecap="round" stroke-linejoin="round"/>
<path id="Path_480" d="M15.2937 3.79327L14.9302 3.6375L14.5149 4.28654L15.1379 4.54615L15.2937 3.79327Z" fill="var(--fill-0, #B8A676)" stroke="var(--stroke-0, #B8A676)" stroke-linecap="round" stroke-linejoin="round"/>
<path id="Path_481" d="M16.1115 4.77982L15.9427 4.41636L15.1898 4.59809L15.4754 5.20819L16.1115 4.77982Z" stroke="var(--stroke-0, #B8A676)" stroke-linecap="round" stroke-linejoin="round"/>
<path id="Path_482" d="M15.9817 6.16872L16.1375 5.80526L15.4884 5.38988L15.2288 6.01296L15.9817 6.16872Z" fill="var(--fill-0, #B8A676)" stroke="var(--stroke-0, #B8A676)" stroke-linecap="round" stroke-linejoin="round"/>
<path id="Path_483" d="M14.9302 6.99953L15.2937 6.84376L15.1379 6.09088L14.5149 6.35049L14.9302 6.99953Z" fill="var(--fill-0, #B8A676)" stroke="var(--stroke-0, #B8A676)" stroke-linecap="round" stroke-linejoin="round"/>
</g>
</g>
</svg>
