<svg preserveAspectRatio="none" width="100%" height="100%" overflow="visible" style="display: block;" viewBox="0 0 40 40" fill="none" xmlns="http://www.w3.org/2000/svg">
<g id="Group 8">
<g id="Rectangle 1">
</g>
<path id="Vector" d="M33.9527 27.6325C33.5807 27.3459 33.1477 27.1491 32.6873 27.0574C32.2268 26.9657 31.7514 26.9816 31.2981 27.1038L26.0691 28.3063C26.1908 27.7922 26.1945 27.2574 26.0801 26.7417C25.9657 26.226 25.736 25.743 25.4084 25.3287C25.0808 24.9144 24.6636 24.5797 24.1883 24.3496C23.7129 24.1195 23.1916 24 22.6635 24H16.4071C15.8817 23.9987 15.3613 24.1015 14.8758 24.3026C14.3904 24.5036 13.9496 24.7988 13.5789 25.1713L10.7519 28H7.16632C6.63598 28 6.12737 28.2107 5.75237 28.5858C5.37736 28.9609 5.16669 29.4696 5.16669 30V35C5.16669 35.5304 5.37736 36.0391 5.75237 36.4142C6.12737 36.7893 6.63598 37 7.16632 37H20.1639C20.2457 37 20.3271 36.99 20.4064 36.97L28.4049 34.97C28.4559 34.9579 28.5057 34.9411 28.5537 34.92L33.4115 32.8525L33.4665 32.8275C33.9334 32.5942 34.3332 32.2458 34.6282 31.8152C34.9233 31.3846 35.1039 30.886 35.153 30.3663C35.2022 29.8466 35.1182 29.3229 34.9091 28.8447C34.7 28.3664 34.3725 27.9492 33.9577 27.6325H33.9527ZM7.16632 30H10.1658V35H7.16632V30ZM32.5904 31.0263L27.8413 33.0488L20.039 35H12.1654V29.4138L14.9936 26.5863C15.1786 26.3997 15.3989 26.2519 15.6415 26.1512C15.8842 26.0506 16.1444 25.9992 16.4071 26H22.6635C23.0612 26 23.4427 26.158 23.7239 26.4394C24.0052 26.7207 24.1632 27.1022 24.1632 27.5C24.1632 27.8978 24.0052 28.2794 23.7239 28.5607C23.4427 28.842 23.0612 29 22.6635 29H19.1641C18.899 29 18.6446 29.1054 18.4571 29.2929C18.2696 29.4804 18.1643 29.7348 18.1643 30C18.1643 30.2652 18.2696 30.5196 18.4571 30.7071C18.6446 30.8947 18.899 31 19.1641 31H23.1634C23.2386 30.9998 23.3137 30.9914 23.3871 30.975L31.7606 29.0488L31.7993 29.0388C32.0549 28.9678 32.3278 28.9939 32.5653 29.112C32.8028 29.2301 32.9883 29.4319 33.086 29.6786C33.1838 29.9253 33.1868 30.1994 33.0946 30.4482C33.0024 30.697 32.8215 30.9029 32.5867 31.0263H32.5904Z" fill="var(--fill-0, #3A4246)"/>
<g id="Vector_2">
<path d="M10.4193 16.4522C10.0442 16.8272 9.83343 17.3359 9.83331 17.8662V20.0382C9.83331 20.3035 9.93867 20.5578 10.1262 20.7454C10.3137 20.9329 10.5681 21.0382 10.8333 21.0382H13.8333C14.0985 21.0382 14.3529 20.9329 14.5404 20.7454C14.728 20.5578 14.8333 20.3035 14.8333 20.0382V19.0382C14.8333 18.773 14.9387 18.5187 15.1262 18.3311C15.3137 18.1436 15.5681 18.0382 15.8333 18.0382H16.8333C17.0985 18.0382 17.3529 17.9329 17.5404 17.7454C17.728 17.5578 17.8333 17.3035 17.8333 17.0382V16.0382C17.8333 15.773 17.9387 15.5187 18.1262 15.3311C18.3137 15.1436 18.5681 15.0382 18.8333 15.0382H19.0053C19.5357 15.0381 20.0443 14.8273 20.4193 14.4522L21.2333 13.6382C22.6231 14.1224 24.1361 14.1205 25.5248 13.633C26.9134 13.1455 28.0955 12.2011 28.8777 10.9544C29.6598 9.70766 29.9957 8.23242 29.8304 6.76999C29.6651 5.30755 29.0084 3.9445 27.9677 2.90382C26.9271 1.86314 25.564 1.20643 24.1016 1.04114C22.6391 0.875843 21.1639 1.21174 19.9172 1.99389C18.6705 2.77603 17.7261 3.95812 17.2386 5.34677C16.751 6.73541 16.7492 8.24841 17.2333 9.63825L10.4193 16.4522Z" stroke="var(--stroke-0, #B8A676)" stroke-width="2" stroke-linecap="round" stroke-linejoin="round"/>
<path d="M24.3333 7.03833C24.6095 7.03833 24.8333 6.81447 24.8333 6.53833C24.8333 6.26219 24.6095 6.03833 24.3333 6.03833C24.0572 6.03833 23.8333 6.26219 23.8333 6.53833C23.8333 6.81447 24.0572 7.03833 24.3333 7.03833Z" stroke="var(--stroke-0, #B8A676)" stroke-width="2" stroke-linecap="round" stroke-linejoin="round"/>
</g>
</g>
</svg>
