<svg preserveAspectRatio="none" width="100%" height="100%" overflow="visible" style="display: block;" viewBox="0 0 16.0005 16.0005" fill="none" xmlns="http://www.w3.org/2000/svg">
<g id="_3002786_gear_preferences_settings_icon">
<path id="Ellipse_133" d="M8.00021 9.01568C8.56099 9.01568 9.01559 8.56108 9.01559 8.0003C9.01559 7.43952 8.56099 6.98491 8.00021 6.98491C7.43942 6.98491 6.98482 7.43952 6.98482 8.0003C6.98482 8.56108 7.43942 9.01568 8.00021 9.01568Z" fill="var(--fill-0, #F8F7F5)"/>
<path id="Ellipse_134" d="M8.00021 11.6464C10.0139 11.6464 11.6464 10.0139 11.6464 8.00021C11.6464 5.98649 10.0139 4.35405 8.00021 4.35405C5.98649 4.35405 4.35405 5.98649 4.35405 8.00021C4.35405 10.0139 5.98649 11.6464 8.00021 11.6464Z" fill="var(--fill-0, #F8F7F5)" stroke="var(--stroke-0, #F8F7F5)" stroke-width="2" stroke-linecap="round" stroke-linejoin="round"/>
<path id="Path_476" d="M4.95409 13.4464L6.2464 14.0003L7.72332 11.6926L5.50794 10.7695L4.95409 13.4464Z" fill="var(--fill-0, #F8F7F5)" stroke="var(--stroke-0, #F8F7F5)" stroke-width="4" stroke-linecap="round" stroke-linejoin="round"/>
<path id="Path_477" d="M2.00023 9.70787L2.55408 11.0002L5.231 10.4463L4.30793 8.23095L2.00023 9.70787Z" fill="var(--fill-0, #F8F7F5)" stroke="var(--stroke-0, #F8F7F5)" stroke-width="4" stroke-linecap="round" stroke-linejoin="round"/>
<path id="Path_478" d="M2.55408 4.95409L2.00023 6.2464L4.30793 7.72332L5.231 5.50794L2.55408 4.95409Z" fill="var(--fill-0, #F8F7F5)" stroke="var(--stroke-0, #F8F7F5)" stroke-width="4" stroke-linecap="round" stroke-linejoin="round"/>
<path id="Path_479" d="M6.2464 2.00023L4.95409 2.55408L5.50794 5.231L7.72332 4.30793L6.2464 2.00023Z" fill="var(--fill-0, #F8F7F5)" stroke="var(--stroke-0, #F8F7F5)" stroke-width="4" stroke-linecap="round" stroke-linejoin="round"/>
<path id="Path_480" d="M11.0002 2.55408L9.70787 2.00023L8.23095 4.30793L10.4463 5.231L11.0002 2.55408Z" fill="var(--fill-0, #F8F7F5)" stroke="var(--stroke-0, #F8F7F5)" stroke-width="4" stroke-linecap="round" stroke-linejoin="round"/>
<path id="Path_481" d="M13.9079 6.06183L13.3079 4.76952L10.631 5.41567L11.6464 7.5849L13.9079 6.06183Z" fill="var(--fill-0, #F8F7F5)" stroke="var(--stroke-0, #F8F7F5)" stroke-width="4" stroke-linecap="round" stroke-linejoin="round"/>
<path id="Path_482" d="M13.4464 11.0002L14.0003 9.70787L11.6926 8.23095L10.7695 10.4463L13.4464 11.0002Z" fill="var(--fill-0, #F8F7F5)" stroke="var(--stroke-0, #F8F7F5)" stroke-width="4" stroke-linecap="round" stroke-linejoin="round"/>
<path id="Path_483" d="M9.70787 13.9541L11.0002 13.4003L10.4463 10.7234L8.23095 11.6465L9.70787 13.9541Z" fill="var(--fill-0, #F8F7F5)" stroke="var(--stroke-0, #F8F7F5)" stroke-width="4" stroke-linecap="round" stroke-linejoin="round"/>
</g>
</svg>
