<svg preserveAspectRatio="none" width="100%" height="100%" overflow="visible" style="display: block;" viewBox="0 0 26.7471 26.7471" fill="none" xmlns="http://www.w3.org/2000/svg">
<g id="_3002786_gear_preferences_settings_icon">
<path id="Ellipse_133" d="M13.3736 15.5736C14.5886 15.5736 15.5736 14.5886 15.5736 13.3736C15.5736 12.1585 14.5886 11.1736 13.3736 11.1736C12.1585 11.1736 11.1736 12.1585 11.1736 13.3736C11.1736 14.5886 12.1585 15.5736 13.3736 15.5736Z" fill="var(--fill-0, white)" stroke="var(--stroke-0, white)" stroke-linecap="round" stroke-linejoin="round"/>
<path id="Ellipse_134" d="M13.3736 21.2736C17.7366 21.2736 21.2736 17.7366 21.2736 13.3736C21.2736 9.01052 17.7366 5.47357 13.3736 5.47357C9.01052 5.47357 5.47357 9.01052 5.47357 13.3736C5.47357 17.7366 9.01052 21.2736 13.3736 21.2736Z" stroke="var(--stroke-0, white)" stroke-width="2" stroke-linecap="round" stroke-linejoin="round"/>
<path id="Path_476" d="M6.85633 24.7736C6.80817 25.0064 6.93053 25.2408 7.149 25.3345L9.18397 26.2066C9.40875 26.3029 9.67023 26.2225 9.80206 26.0166L12.4524 21.8755C12.6199 21.6136 12.5105 21.264 12.2235 21.1444L8.53277 19.6066C8.24277 19.4857 7.91449 19.6591 7.85083 19.9668L6.85633 24.7736Z" fill="var(--fill-0, white)" stroke="var(--stroke-0, white)" stroke-linecap="round" stroke-linejoin="round"/>
<path id="Path_477" d="M0.73059 16.8451C0.524606 16.9769 0.444208 17.2384 0.540544 17.4632L1.41268 19.4981C1.5063 19.7166 1.74079 19.839 1.97355 19.7908L6.78034 18.7963C7.08799 18.7327 7.26141 18.4044 7.14057 18.1144L5.60275 14.4236C5.48319 14.1366 5.13352 14.0272 4.87169 14.1948L0.73059 16.8451Z" fill="var(--fill-0, white)" stroke="var(--stroke-0, white)" stroke-linecap="round" stroke-linejoin="round"/>
<path id="Path_478" d="M1.97355 6.85633C1.74079 6.80817 1.5063 6.93053 1.41267 7.149L0.540544 9.18397C0.444208 9.40875 0.524606 9.67023 0.73059 9.80206L4.87169 12.4524C5.13352 12.6199 5.48319 12.5105 5.60275 12.2235L7.14057 8.53277C7.26141 8.24277 7.08799 7.91449 6.78034 7.85083L1.97355 6.85633Z" fill="var(--fill-0, white)" stroke="var(--stroke-0, white)" stroke-linecap="round" stroke-linejoin="round"/>
<path id="Path_479" d="M9.80206 0.73059C9.67023 0.524607 9.40875 0.444208 9.18397 0.540544L7.149 1.41267C6.93053 1.5063 6.80817 1.74079 6.85633 1.97355L7.85083 6.78034C7.91449 7.08799 8.24276 7.26141 8.53277 7.14057L12.2235 5.60275C12.5105 5.48319 12.6199 5.13352 12.4524 4.87169L9.80206 0.73059Z" fill="var(--fill-0, white)" stroke="var(--stroke-0, white)" stroke-linecap="round" stroke-linejoin="round"/>
<path id="Path_480" d="M19.7908 1.97355C19.839 1.74079 19.7166 1.5063 19.4981 1.41267L17.4632 0.540544C17.2384 0.444208 16.9769 0.524606 16.8451 0.73059L14.1948 4.87169C14.0272 5.13352 14.1366 5.48319 14.4236 5.60275L18.1144 7.14057C18.4044 7.26141 18.7327 7.08799 18.7963 6.78034L19.7908 1.97355Z" fill="var(--fill-0, white)" stroke="var(--stroke-0, white)" stroke-linecap="round" stroke-linejoin="round"/>
<path id="Path_481" d="M25.8197 9.41189C26.0236 9.2746 26.0974 9.00953 25.9939 8.78661L25.0461 6.74519C24.9458 6.52909 24.7069 6.4138 24.4753 6.46971L19.6686 7.62994C19.3612 7.70415 19.199 8.04153 19.3331 8.32796L21.0259 11.9445C21.156 12.2225 21.5035 12.3187 21.7581 12.1473L25.8197 9.41189Z" fill="var(--fill-0, white)" stroke="var(--stroke-0, white)" stroke-linecap="round" stroke-linejoin="round"/>
<path id="Path_482" d="M24.7736 19.7908C25.0064 19.839 25.2408 19.7166 25.3345 19.4981L26.2066 17.4632C26.3029 17.2384 26.2225 16.9769 26.0166 16.8451L21.8755 14.1948C21.6136 14.0272 21.264 14.1366 21.1444 14.4236L19.6066 18.1144C19.4857 18.4044 19.6591 18.7327 19.9668 18.7963L24.7736 19.7908Z" fill="var(--fill-0, white)" stroke="var(--stroke-0, white)" stroke-linecap="round" stroke-linejoin="round"/>
<path id="Path_483" d="M16.8451 25.9166C16.9769 26.1225 17.2384 26.2029 17.4632 26.1066L19.4981 25.2345C19.7166 25.1408 19.839 24.9064 19.7908 24.6736L18.7963 19.8668C18.7327 19.5591 18.4044 19.3857 18.1144 19.5066L14.4236 21.0444C14.1366 21.164 14.0272 21.5136 14.1948 21.7755L16.8451 25.9166Z" fill="var(--fill-0, white)" stroke="var(--stroke-0, white)" stroke-linecap="round" stroke-linejoin="round"/>
</g>
</svg>
