<svg preserveAspectRatio="none" width="100%" height="100%" overflow="visible" style="display: block;" viewBox="0 0 24 24" fill="none" xmlns="http://www.w3.org/2000/svg">
<g id="Group_748">
<g id="Ellipse_144">
<g id="Vector">
</g>
<path id="Vector_2" d="M12 23C18.0751 23 23 18.0751 23 12C23 5.92487 18.0751 1 12 1C5.92487 1 1 5.92487 1 12C1 18.0751 5.92487 23 12 23Z" stroke="var(--stroke-0, #3A4246)" stroke-width="2"/>
</g>
<path id="Ellipse_147" d="M7.3 13.3C8.40457 13.3 9.3 12.4046 9.3 11.3C9.3 10.1954 8.40457 9.3 7.3 9.3C6.19543 9.3 5.3 10.1954 5.3 11.3C5.3 12.4046 6.19543 13.3 7.3 13.3Z" fill="var(--fill-0, #3A4246)"/>
<path id="Ellipse_148" d="M16.7 13.3C17.8046 13.3 18.7 12.4046 18.7 11.3C18.7 10.1954 17.8046 9.3 16.7 9.3C15.5954 9.3 14.7 10.1954 14.7 11.3C14.7 12.4046 15.5954 13.3 16.7 13.3Z" fill="var(--fill-0, #3A4246)"/>
<path id="Path_512" d="M10.1 15.5C10.1 15.5 10 17.9 12.2 17.8C14.4 17.7 14.1 15.4 14.1 15.4" stroke="var(--stroke-0, #3A4246)" stroke-width="2" stroke-linecap="round"/>
</g>
</svg>
