<svg preserveAspectRatio="none" width="100%" height="100%" overflow="visible" style="display: block;" viewBox="0 0 40 40" fill="none" xmlns="http://www.w3.org/2000/svg">
<g id="Group 13">
<g id="Rectangle 1">
</g>
<path id="Vector" d="M34.1667 19V31.342C34.1667 32.1796 33.839 32.9828 33.2555 33.575C32.6721 34.1673 31.8808 34.5 31.0556 34.5H9.27786C8.45274 34.5 7.66142 34.1673 7.07797 33.575C6.49452 32.9828 6.16675 32.1796 6.16675 31.342V17.131C6.16664 16.6716 6.26527 16.2177 6.45575 15.801C6.64624 15.3843 6.92399 15.0148 7.26964 14.7183L18.1585 5.24581C18.7015 4.78011 19.3852 4.51719 20.0959 4.50081C20.8065 4.48444 21.5013 4.71559 22.0645 5.15581L26.5 8.5M24.8334 34.4999V21.8679C24.8334 21.4491 24.6695 21.0475 24.3778 20.7514C24.0861 20.4552 23.6904 20.2889 23.2779 20.2889H17.0556C16.6431 20.2889 16.2474 20.4552 15.9557 20.7514C15.664 21.0475 15.5001 21.4491 15.5001 21.8679V34.4999" stroke="var(--stroke-0, #3A4246)" stroke-width="2" stroke-linecap="round" stroke-linejoin="round"/>
<line id="Line 11" x1="27.1667" y1="13" x2="35.1667" y2="13" stroke="var(--stroke-0, #B8A676)" stroke-width="2" stroke-linecap="round"/>
<line id="Line 12" x1="31.1667" y1="9" x2="31.1667" y2="17" stroke="var(--stroke-0, #B8A676)" stroke-width="2" stroke-linecap="round"/>
</g>
</svg>
