<svg preserveAspectRatio="none" width="100%" height="100%" overflow="visible" style="display: block;" viewBox="0 0 40 40" fill="none" xmlns="http://www.w3.org/2000/svg">
<g id="Group 13">
<g id="Rectangle 1">
</g>
<path id="Vector" d="M21.4911 9.50279C21.0486 9.16529 20.5027 8.98807 19.9443 9.00062C19.3859 9.01318 18.8487 9.21475 18.4221 9.57179L9.86656 16.834C9.59497 17.0613 9.37674 17.3446 9.22707 17.6641C9.07741 17.9836 8.99991 18.3315 9 18.6837V29.5789C9 30.221 9.25754 30.8368 9.71596 31.2909C10.1744 31.7449 10.7961 32 11.4444 32H28.5556C29.2039 32 29.8256 31.7449 30.284 31.2909C30.7425 30.8368 31 30.221 31 29.5789V21.8869M23.6667 31.9999V22.3154C23.6667 21.9943 23.5379 21.6864 23.3087 21.4594C23.0795 21.2323 22.7686 21.1048 22.4444 21.1048H17.5556C17.2314 21.1048 16.9205 21.2323 16.6913 21.4594C16.4621 21.6864 16.3333 21.9943 16.3333 22.3154V31.9999" stroke="var(--stroke-0, #3A4246)" stroke-width="2" stroke-linecap="round" stroke-linejoin="round"/>
<g id="Group 54626">
<line id="Line 5" x1="23" y1="15" x2="31" y2="15" stroke="var(--stroke-0, #B8A676)" stroke-width="2" stroke-linecap="round"/>
<line id="Line 6" x1="27" y1="11" x2="27" y2="19" stroke="var(--stroke-0, #B8A676)" stroke-width="2" stroke-linecap="round"/>
</g>
</g>
</svg>
