<svg preserveAspectRatio="none" width="100%" height="100%" overflow="visible" style="display: block;" viewBox="0 0 40 40" fill="none" xmlns="http://www.w3.org/2000/svg">
<g id="Group 13">
<g id="Rectangle 1">
</g>
<path id="Vector" d="M22.0645 5.15581C21.5013 4.71559 20.8065 4.48444 20.0959 4.50081C19.3852 4.51719 18.7015 4.78011 18.1585 5.24581L7.26964 14.7183C6.92399 15.0148 6.64624 15.3843 6.45575 15.801C6.26527 16.2177 6.16664 16.6716 6.16675 17.131V31.342C6.16675 32.1795 6.49452 32.9828 7.07797 33.575C7.66142 34.1673 8.45274 34.5 9.27786 34.5H31.0556C31.8808 34.5 32.6721 34.1673 33.2555 33.575C33.839 32.9828 34.1667 32.1795 34.1667 31.342V21.309M24.8334 34.4999V21.8679C24.8334 21.4491 24.6695 21.0475 24.3778 20.7514C24.0861 20.4552 23.6904 20.2889 23.2779 20.2889H17.0556C16.6431 20.2889 16.2474 20.4552 15.9557 20.7514C15.664 21.0475 15.5001 21.4491 15.5001 21.8679V34.4999" stroke="var(--stroke-0, #3A4246)" stroke-width="2" stroke-linecap="round" stroke-linejoin="round"/>
<path id="Vector_2" d="M36.1667 13.2703L34.7073 12.7839M25.6262 9.21629L24.1667 8.72981M27.8966 17L28.383 15.5405M31.9506 6.45946L32.4371 5M32.7612 16.9998L32.1125 15.3782M28.2206 6.62162L27.5719 5M24.1667 13.5944L25.7884 12.9458M34.545 9.05381L36.1666 8.40517M35.0315 10.9999C35.0315 13.6867 32.8535 15.8648 30.1667 15.8648C27.4799 15.8648 25.3018 13.6867 25.3018 10.9999C25.3018 8.31313 27.4799 6.13506 30.1667 6.13506C32.8535 6.13506 35.0315 8.31313 35.0315 10.9999Z" stroke="var(--stroke-0, #B8A676)" stroke-width="2" stroke-linecap="round" stroke-linejoin="round"/>
<circle id="Ellipse 171" cx="30.1667" cy="11" r="2" fill="var(--fill-0, #B8A676)"/>
</g>
</svg>
