<svg preserveAspectRatio="none" width="100%" height="100%" overflow="visible" style="display: block;" viewBox="0 0 40 40" fill="none" xmlns="http://www.w3.org/2000/svg">
<g id="Group 12">
<g id="Rectangle 1">
</g>
<path id="Vector" d="M7.0243 18.9299V6.19585C7.0243 5.61347 7.25711 5.05495 7.67151 4.64315C8.08591 4.23135 8.64796 4 9.23401 4H32.6202C32.9132 4 33.1943 4.11567 33.4015 4.32157C33.6087 4.52748 33.7251 4.80674 33.7251 5.09793C33.7251 5.38911 33.6087 5.66837 33.4015 5.87428C33.1943 6.08018 32.9132 6.19585 32.6202 6.19585H9.23401V26.1735C9.8929 25.5046 10.7748 25.0978 11.7142 25.0292C12.6535 24.9606 13.5858 25.2351 14.3359 25.8012C15.0861 26.3672 15.6025 27.1858 15.7884 28.1034C15.9742 29.021 15.8167 29.9745 15.3453 30.7848L15.3121 30.8369L12.2379 35.5031C12.0774 35.7468 11.8261 35.9172 11.5393 35.9768C11.2525 36.0363 10.9535 35.9803 10.7083 35.8208C10.4631 35.6614 10.2916 35.4117 10.2317 35.1267C10.1717 34.8416 10.2282 34.5446 10.3886 34.3009L13.4449 29.6635C13.6616 29.2834 13.7174 28.8332 13.6 28.4121C13.4827 27.9911 13.2019 27.6336 12.8193 27.4183C12.4367 27.203 11.9837 27.1475 11.56 27.2641C11.1363 27.3807 10.7765 27.6598 10.5598 28.04C10.5502 28.0578 10.5391 28.0757 10.5281 28.0921L9.05309 30.3305C8.92271 30.5281 8.73167 30.6786 8.50834 30.7597C8.28501 30.8408 8.04132 30.8481 7.81346 30.7806C7.58561 30.7131 7.38574 30.5744 7.24357 30.385C7.1014 30.1956 7.0245 29.9657 7.0243 29.7294V21.7269C5.9829 22.6849 5.15117 23.8456 4.58092 25.137C4.01067 26.4283 3.7141 27.8224 3.70972 29.2326V34.902C3.70972 35.1932 3.59332 35.4725 3.38611 35.6784C3.17891 35.8843 2.89789 35.9999 2.60486 35.9999C2.31184 35.9999 2.0308 35.8843 1.8236 35.6784C1.6164 35.4725 1.5 35.1932 1.5 34.902V29.2271C1.50625 27.1933 2.01288 25.1918 2.97573 23.397C3.93859 21.6023 5.32848 20.0687 7.0243 18.9299ZM28.3159 4H35.2903C35.8763 4 36.4384 4.23135 36.8528 4.64315C37.2672 5.05495 37.5 5.61347 37.5 6.19585V33.6751C37.5 33.9662 37.3836 34.2455 37.1764 34.4514C36.9692 34.6573 36.6882 34.773 36.3951 34.773C36.1021 34.773 35.8211 34.6573 35.6139 34.4514C35.4067 34.2455 35.2903 33.9662 35.2903 33.6751V6.19585H28.3159C28.0228 6.19585 27.7418 6.08018 27.5346 5.87428C27.3274 5.66837 27.211 5.38911 27.211 5.09793C27.211 4.80674 27.3274 4.52748 27.5346 4.32157C27.7418 4.11567 28.0228 4 28.3159 4Z" fill="var(--fill-0, #3A4246)"/>
<path id="Vector_2" d="M17.5 19.5556L21.0556 23.1111L28.1667 16" stroke="var(--stroke-0, #B8A676)" stroke-width="2" stroke-linecap="round" stroke-linejoin="round"/>
</g>
</svg>
