<svg preserveAspectRatio="none" width="100%" height="100%" overflow="visible" style="display: block;" viewBox="0 0 40 40" fill="none" xmlns="http://www.w3.org/2000/svg">
<g id="Group 9">
<g id="Rectangle 1">
</g>
<path id="Vector" d="M22.3333 22.5H14.8333M22.3333 16.5H14.8333M28.3333 30V12C28.3333 11.2044 28.0172 10.4413 27.4546 9.87868C26.892 9.31607 26.129 9 25.3333 9H5.83331M5.83331 9C6.62896 9 7.39202 9.31607 7.95463 9.87868C8.51724 10.4413 8.83331 11.2044 8.83331 12V33C8.83331 33.7956 9.14938 34.5587 9.71199 35.1213C10.2746 35.6839 11.0377 36 11.8333 36M5.83331 9C5.03766 9 4.2746 9.31607 3.71199 9.87868C3.14938 10.4413 2.83331 11.2044 2.83331 12V15C2.83331 15.3978 2.99135 15.7794 3.27265 16.0607C3.55396 16.342 3.93549 16.5 4.33331 16.5H8.83331M11.8333 36H29.8333C30.629 36 31.392 35.6839 31.9546 35.1213C32.5172 34.5587 32.8333 33.7956 32.8333 33V31.5C32.8333 31.1022 32.6753 30.7206 32.394 30.4393C32.1127 30.158 31.7311 30 31.3333 30H16.3333C15.9355 30 15.554 30.158 15.2727 30.4393C14.9913 30.7206 14.8333 31.1022 14.8333 31.5V33C14.8333 33.7956 14.5172 34.5587 13.9546 35.1213C13.392 35.6839 12.629 36 11.8333 36Z" stroke="var(--stroke-0, #3A4246)" stroke-width="2" stroke-linecap="round" stroke-linejoin="round"/>
<circle id="Ellipse 170" cx="28.8333" cy="11" r="8" fill="var(--fill-0, #F6F6F3)" stroke="var(--stroke-0, #B8A676)" stroke-width="2"/>
<path id="Vector_2" d="M30.7641 10.8674C30.2867 10.6474 29.7878 10.4825 29.2765 10.3757C28.9261 10.2904 28.5814 10.1808 28.2447 10.0478C28.0483 9.96919 27.8718 9.84405 27.7289 9.68212C27.6172 9.54552 27.5574 9.3704 27.5609 9.19033C27.555 9.05895 27.5817 8.92821 27.6385 8.81101C27.6953 8.69381 27.7802 8.5942 27.8848 8.522C28.1608 8.35357 28.478 8.27461 28.7966 8.29503C29.1044 8.28438 29.4086 8.36759 29.6724 8.53462C29.7785 8.5963 29.8708 8.68109 29.9432 8.78329C30.0156 8.8855 30.0665 9.00278 30.0923 9.12728C30.1152 9.19018 30.1567 9.2437 30.2107 9.28001C30.2647 9.31632 30.3283 9.3335 30.3922 9.32904L31.388 9.32904C31.4167 9.32994 31.4452 9.32484 31.472 9.31401C31.4988 9.30319 31.5232 9.28686 31.5439 9.26599C31.5638 9.24422 31.5793 9.21852 31.5896 9.19037C31.5999 9.16223 31.6048 9.1322 31.6039 9.10206C31.5865 8.79155 31.4913 8.49139 31.328 8.23198C31.1354 7.9259 30.8815 7.6677 30.5842 7.47538C30.2192 7.24137 29.8095 7.09497 29.3845 7.04665L29.3845 6.26484C29.3879 6.19996 29.3673 6.13621 29.3271 6.08687C29.2868 6.03754 29.23 6.00643 29.1685 6.00003L28.5207 6.00003C28.4874 5.99953 28.4544 6.00596 28.4235 6.01894C28.3926 6.03193 28.3645 6.05121 28.3407 6.07569C28.3169 6.10022 28.2981 6.12972 28.2857 6.16229C28.2733 6.19485 28.2676 6.22978 28.2687 6.26484L28.2687 7.02143C27.6673 7.07254 27.0984 7.32944 26.6491 7.7528C26.4564 7.93819 26.3033 8.16442 26.1999 8.41656C26.0965 8.6687 26.0452 8.94102 26.0493 9.21555C26.0322 9.48945 26.0752 9.76381 26.175 10.0174C26.2749 10.2711 26.4289 10.4972 26.6251 10.6783C27.167 11.0914 27.7902 11.3715 28.4487 11.4979C28.9446 11.6409 29.3205 11.7585 29.5764 11.851C29.7902 11.9241 29.9866 12.0445 30.1523 12.2041C30.2146 12.2679 30.2638 12.3445 30.2968 12.4291C30.3298 12.5137 30.3459 12.6045 30.3442 12.6959C30.3467 12.8375 30.3136 12.9774 30.2483 13.1013C30.183 13.2253 30.0878 13.329 29.9723 13.402C29.6365 13.6007 29.2531 13.6927 28.8686 13.6668C28.5128 13.6865 28.159 13.599 27.8488 13.4146C27.6191 13.2722 27.4448 13.0488 27.3569 12.7841C27.3247 12.7202 27.2797 12.6643 27.225 12.6202C27.1624 12.6006 27.0956 12.6006 27.033 12.6202L26.0733 12.6202C26.0418 12.62 26.0107 12.6266 25.9817 12.6396C25.9528 12.6526 25.9268 12.6718 25.9053 12.6959C25.8833 12.7166 25.8655 12.7418 25.8531 12.77C25.8407 12.7982 25.834 12.8288 25.8333 12.8598C25.8477 13.2021 25.9515 13.5337 26.1332 13.8182C26.3412 14.1376 26.6216 14.3976 26.949 14.5747C27.3515 14.7954 27.7922 14.9284 28.2447 14.9657L28.2447 15.7349C28.2436 15.7699 28.2494 15.8048 28.2617 15.8374C28.2741 15.87 28.2929 15.8995 28.3167 15.924C28.3405 15.9485 28.3686 15.9678 28.3995 15.9808C28.4304 15.9937 28.4634 16.0002 28.4967 15.9997L29.1445 15.9997C29.1781 16.0015 29.2116 15.9959 29.2429 15.9832C29.2743 15.9705 29.3027 15.9511 29.3265 15.9261C29.3502 15.9012 29.3687 15.8712 29.3808 15.8383C29.3928 15.8054 29.3982 15.7701 29.3965 15.7349L29.3965 14.9657C30.0449 14.9254 30.6654 14.6743 31.172 14.2469C31.3853 14.0566 31.5553 13.8185 31.6695 13.5501C31.7837 13.2817 31.8392 12.9898 31.8319 12.6959C31.8461 12.3191 31.7543 11.9463 31.5679 11.624C31.3738 11.2967 31.095 11.0343 30.7641 10.8674Z" fill="var(--fill-0, #B8A676)"/>
</g>
</svg>
