<svg preserveAspectRatio="xMidYMid meet" width="64" height="64" overflow="visible" style="display: block;" viewBox="0 0 64 64" fill="none" xmlns="http://www.w3.org/2000/svg">
<g id="mark_13671442 2">
<path id="Vector" d="M43.7 21.8L27.6 37.8L20.3 30.5C19.5 29.7 18.2 29.7 17.4 30.5C16.6 31.3 16.6 32.6 17.4 33.4L26.2 42.2C26.6 42.6 27.1 42.8 27.7 42.8C28.2 42.8 28.8 42.6 29.2 42.2L46.7 24.7C47.5 23.9 47.5 22.6 46.7 21.8C45.9 21 44.5 21 43.7 21.8Z" fill="url(#paint0_linear_0_4)"/>
<path id="Vector_2" d="M59.9 23.7C58.8 23.9 58.1 25 58.4 26.1C58.8 28 59 30 59 32C59 46.9 46.9 59 32 59C17.1 59 5 46.9 5 32C5 17.1 17.1 5 32 5C36 5 39.8 5.8 43.4 7.5C44.4 8 45.6 7.5 46.1 6.5C46.6 5.5 46.1 4.3 45.1 3.8C41 2 36.6 1 32 1C14.9 1 1 14.9 1 32C1 49.1 14.9 63 32 63C49.1 63 63 49.1 63 32C63 29.7 62.8 27.4 62.3 25.2C62 24.2 61 23.5 59.9 23.7Z" fill="url(#paint1_linear_0_4)"/>
<path id="Vector_3" d="M54.5 15.9C55.6046 15.9 56.5 15.0046 56.5 13.9C56.5 12.7954 55.6046 11.9 54.5 11.9C53.3954 11.9 52.5 12.7954 52.5 13.9C52.5 15.0046 53.3954 15.9 54.5 15.9Z" fill="url(#paint2_linear_0_4)"/>
</g>
<defs>
<linearGradient id="paint0_linear_0_4" x1="32.05" y1="21.2" x2="32.05" y2="42.8" gradientUnits="userSpaceOnUse">
<stop stop-color="#B8A676"/>
<stop offset="1" stop-color="#B3B09E"/>
</linearGradient>
<linearGradient id="paint1_linear_0_4" x1="32" y1="1" x2="32" y2="63" gradientUnits="userSpaceOnUse">
<stop stop-color="#B8A676"/>
<stop offset="1" stop-color="#B3B09E"/>
</linearGradient>
<linearGradient id="paint2_linear_0_4" x1="54.5" y1="11.9" x2="54.5" y2="15.9" gradientUnits="userSpaceOnUse">
<stop stop-color="#B8A676"/>
<stop offset="1" stop-color="#B3B09E"/>
</linearGradient>
</defs>
</svg>
