<svg preserveAspectRatio="none" width="100%" height="100%" overflow="visible" style="display: block;" viewBox="0 0 13.0002 13.0002" fill="none" xmlns="http://www.w3.org/2000/svg">
<g id="_3002786_gear_preferences_settings_icon">
<path id="Ellipse_133" d="M6.50003 7.51551C7.06081 7.51551 7.51542 7.0609 7.51542 6.50012C7.51542 5.93934 7.06081 5.48474 6.50003 5.48474C5.93925 5.48474 5.48465 5.93934 5.48465 6.50012C5.48465 7.0609 5.93925 7.51551 6.50003 7.51551Z" fill="var(--fill-0, #B8A676)"/>
<path id="Ellipse_134" d="M6.50003 10.1462C8.51375 10.1462 10.1462 8.51375 10.1462 6.50003C10.1462 4.48632 8.51375 2.85388 6.50003 2.85388C4.48632 2.85388 2.85388 4.48632 2.85388 6.50003C2.85388 8.51375 4.48632 10.1462 6.50003 10.1462Z" stroke="var(--stroke-0, #B8A676)" stroke-width="2" stroke-linecap="round" stroke-linejoin="round"/>
<path id="Path_476" d="M3.45392 11.9463L4.74622 12.5001L6.22315 10.1924L4.00776 9.26935L3.45392 11.9463Z" fill="var(--fill-0, #B8A676)" stroke="var(--stroke-0, #B8A676)" stroke-linecap="round" stroke-linejoin="round"/>
<path id="Path_477" d="M0.500058 8.20769L1.0539 9.5L3.73083 8.94616L2.80775 6.73077L0.500058 8.20769Z" fill="var(--fill-0, #B8A676)" stroke="var(--stroke-0, #B8A676)" stroke-linecap="round" stroke-linejoin="round"/>
<path id="Path_478" d="M1.0539 3.45392L0.500058 4.74622L2.80775 6.22315L3.73083 4.00776L1.0539 3.45392Z" fill="var(--fill-0, #B8A676)" stroke="var(--stroke-0, #B8A676)" stroke-linecap="round" stroke-linejoin="round"/>
<path id="Path_479" d="M4.74622 0.500058L3.45392 1.0539L4.00776 3.73083L6.22315 2.80775L4.74622 0.500058Z" fill="var(--fill-0, #B8A676)" stroke="var(--stroke-0, #B8A676)" stroke-linecap="round" stroke-linejoin="round"/>
<path id="Path_480" d="M9.5 1.0539L8.20769 0.500058L6.73077 2.80775L8.94616 3.73083L9.5 1.0539Z" fill="var(--fill-0, #B8A676)" stroke="var(--stroke-0, #B8A676)" stroke-linecap="round" stroke-linejoin="round"/>
<path id="Path_481" d="M12.4077 4.56165L11.8077 3.26935L9.13083 3.9155L10.1462 6.08473L12.4077 4.56165Z" fill="var(--fill-0, #B8A676)" stroke="var(--stroke-0, #B8A676)" stroke-linecap="round" stroke-linejoin="round"/>
<path id="Path_482" d="M11.9463 9.5L12.5001 8.20769L10.1924 6.73077L9.26935 8.94616L11.9463 9.5Z" fill="var(--fill-0, #B8A676)" stroke="var(--stroke-0, #B8A676)" stroke-linecap="round" stroke-linejoin="round"/>
<path id="Path_483" d="M8.20769 12.454L9.5 11.9001L8.94616 9.2232L6.73077 10.1463L8.20769 12.454Z" fill="var(--fill-0, #B8A676)" stroke="var(--stroke-0, #B8A676)" stroke-linecap="round" stroke-linejoin="round"/>
</g>
</svg>
