<svg preserveAspectRatio="none" width="100%" height="100%" overflow="visible" style="display: block;" viewBox="0 0 40 40" fill="none" xmlns="http://www.w3.org/2000/svg">
<g id="Group 4">
<rect id="Rectangle 2" opacity="0" width="40" height="40" fill="var(--fill-0, #D9D9D9)"/>
<path id="Vector" d="M9.81031 31.9277C9.81031 31.9277 9.75138 31.9133 9.69245 31.8554C9.66298 31.8265 9.63352 31.7831 9.60405 31.7398C9.57459 31.7108 9.53038 31.6819 9.51565 31.6386C9.50092 31.5952 9.48619 31.5518 9.48619 31.5084C9.48619 31.4651 9.48619 31.4217 9.48619 31.3639C9.48619 31.3205 9.48619 31.2771 9.51565 31.2337C9.57458 31.1904 9.55985 31.2193 9.64825 31.1904C9.69245 31.1904 9.73665 31.1759 9.79558 31.1614C9.83978 31.1614 9.86924 31.1181 9.92818 31.1036C9.97237 31.1036 10.0166 31.0892 10.0608 31.0747C10.105 31.0602 10.1492 31.0313 10.1934 31.0169C10.2376 31.0024 10.2818 30.988 10.326 30.9735C10.3702 30.959 10.4144 30.9446 10.4586 30.9301C10.5028 30.9157 10.547 30.9157 10.5912 30.8867C10.6354 30.8723 10.6796 30.8578 10.7238 30.8434C10.768 30.8289 10.8122 30.8 10.8564 30.7855C10.9006 30.7711 10.9447 30.7566 10.9889 30.7422C11.0331 30.7277 11.0773 30.7133 11.1215 30.6843C11.1657 30.6699 11.2099 30.641 11.2541 30.6265C11.2983 30.612 11.3425 30.5976 11.3867 30.5831C11.4309 30.5687 11.4604 30.5253 11.5193 30.5108C11.5635 30.4964 11.6077 30.4819 11.6519 30.4675C11.6961 30.453 11.7256 30.4241 11.7845 30.3952C11.8287 30.3807 11.8729 30.3663 11.9171 30.3373C11.9613 30.3229 11.9908 30.2795 12.035 30.2651C12.0792 30.2506 12.1234 30.2217 12.1676 30.2072C12.2118 30.1928 12.256 30.1639 12.3002 30.1494C12.3444 30.1349 12.3886 30.106 12.4328 30.0916C12.477 30.0627 12.5064 30.0337 12.5506 30.0193C12.5948 29.9904 12.639 29.9759 12.6832 29.9614C12.7274 29.947 12.7716 29.9181 12.8158 29.8892C12.86 29.8602 12.9042 29.8458 12.9484 29.8169C12.9926 29.788 13.0221 29.759 13.0663 29.7446C13.1105 29.7157 13.1547 29.7012 13.1989 29.6723C13.2431 29.6434 13.2726 29.6145 13.3168 29.5855C13.361 29.5566 13.4052 29.5566 13.4494 29.5277C13.4936 29.4988 13.523 29.4699 13.5672 29.441C13.6114 29.412 13.6556 29.3976 13.6998 29.3831C13.744 29.3542 13.7735 29.3253 13.8177 29.3108C13.8619 29.2819 13.8913 29.253 13.9355 29.2386C13.9797 29.2096 14.0092 29.1807 14.0534 29.1518C14.0976 29.1229 14.1271 29.094 14.1713 29.0651C14.2155 29.0361 14.2449 29.0072 14.2891 28.9783C14.3333 28.9494 14.3628 28.9205 14.407 28.8916C14.4512 28.8626 14.4807 28.8337 14.5249 28.8048C14.5691 28.7759 14.6133 28.7614 14.6427 28.7325C14.6869 28.7036 14.7164 28.6747 14.7606 28.6458C14.7901 28.6169 14.8195 28.5735 14.8637 28.5446C14.9079 28.5157 14.9374 28.4867 14.9816 28.4578C15.0258 28.4289 15.0552 28.4145 15.0994 28.3855C15.1436 28.3566 15.1731 28.3133 15.2026 28.2843C15.2468 28.2554 15.2762 28.2265 15.3204 28.1976C15.3646 28.1687 15.3941 28.1542 15.4383 28.1253C15.4678 28.0964 15.4972 28.053 15.5414 28.0241C15.5856 27.9952 15.6151 27.9663 15.6593 27.9373C15.7035 27.9084 15.733 27.8795 15.7772 27.8651C15.8214 27.8361 15.8361 27.7928 15.8803 27.7639C15.9245 27.7349 15.954 27.706 15.9982 27.6771C16.0276 27.6482 16.0718 27.6193 16.116 27.5904C16.1602 27.5614 16.175 27.5181 16.2192 27.4892C16.2634 27.4602 16.2928 27.4313 16.337 27.4024C16.3812 27.3735 16.4107 27.3446 16.4401 27.3157C16.4696 27.2867 16.5138 27.2578 16.5433 27.2289C16.5727 27.2 16.6169 27.1711 16.6464 27.1277C16.6759 27.0988 16.7201 27.0554 16.7495 27.0265C16.779 26.9976 16.8232 26.9687 16.8674 26.9398C16.8969 26.9108 16.9263 26.8675 16.9705 26.8386C17 26.8096 17.0442 26.7807 17.0737 26.7373C17.1031 26.7084 17.1473 26.6795 17.1915 26.6506C17.221 26.6217 17.2505 26.5783 17.2799 26.5494C17.3094 26.5205 17.3536 26.4916 17.3831 26.4482C17.4125 26.4193 17.4567 26.3904 17.4862 26.347C17.5157 26.3181 17.5451 26.2747 17.5746 26.2313C17.6041 26.2024 17.6483 26.1735 17.6777 26.1301C17.7072 26.1012 17.7366 26.0578 17.7661 26.0289C17.7956 26 17.825 25.9566 17.8692 25.9277C17.8987 25.8988 17.9282 25.8554 17.9576 25.812C17.9871 25.7831 18.0166 25.7398 18.046 25.7108C18.0755 25.6675 18.0902 25.6241 18.1197 25.5952C18.1492 25.5518 18.1934 25.5229 18.2228 25.494C18.2523 25.4506 18.267 25.4072 18.2965 25.3639C18.326 25.3205 18.3554 25.2916 18.3702 25.2482C18.3996 25.2048 18.4291 25.1759 18.4438 25.1325C18.4733 25.0892 18.5028 25.0602 18.5175 25.0169C18.547 24.9735 18.5764 24.9446 18.6059 24.9012C18.6354 24.8578 18.6501 24.8145 18.6648 24.7711C18.6943 24.7277 18.709 24.6843 18.7385 24.6554C18.768 24.612 18.768 24.5687 18.7827 24.5253C18.7974 24.4819 18.8269 24.4386 18.8564 24.3952C18.8711 24.3518 18.9006 24.3084 18.9153 24.2651C18.93 24.2217 18.9595 24.1783 18.9742 24.1349C18.9889 24.0916 18.9742 24.0337 19.0037 23.9904C19.0037 23.947 19.0332 23.9036 19.0479 23.8602C19.0626 23.8169 19.0921 23.7735 19.1068 23.7301C19.1215 23.6867 19.1215 23.6434 19.1363 23.5855C19.1363 23.5422 19.1363 23.4843 19.1363 23.441C19.1363 23.3976 19.1805 23.3542 19.1805 23.3108C19.1805 23.2675 19.1805 23.2241 19.1805 23.1663C19.1805 23.1229 19.1805 23.0795 19.1805 23.0217C19.1805 22.9783 19.1952 22.9349 19.1952 22.8771C19.1952 22.8337 19.1952 22.7904 19.1952 22.7325C19.1952 22.6892 19.1952 22.6313 19.1952 22.588C19.1952 22.5446 19.1952 22.4867 19.1952 22.4434C19.1952 22.4 19.1805 22.3566 19.1805 22.2988C19.1805 22.2554 19.1805 22.1976 19.1805 22.1542C19.1805 22.1108 19.1805 22.053 19.1657 22.0096C19.1657 21.9663 19.1657 21.9084 19.151 21.8651C19.151 21.8217 19.1215 21.7783 19.1068 21.7205C19.1068 21.6771 19.0921 21.6337 19.0773 21.5759C19.0773 21.5325 19.0479 21.4892 19.0331 21.4458C19.0184 21.4024 19.0037 21.359 18.9889 21.3157C18.9742 21.2723 18.93 21.2289 18.9153 21.1855C18.9006 21.1422 18.8858 21.0988 18.8711 21.0554C18.8564 21.012 18.8416 20.9687 18.8122 20.9253C18.7827 20.8819 18.7827 20.8386 18.7532 20.7952C18.7385 20.7518 18.709 20.7084 18.6796 20.6795C18.6501 20.6361 18.6354 20.5928 18.6206 20.5494C18.5912 20.506 18.5617 20.4771 18.5322 20.4337C18.5028 20.3904 18.4733 20.3614 18.4586 20.3181C18.4291 20.2747 18.4144 20.2313 18.3849 20.2024C18.3554 20.1735 18.326 20.1301 18.2965 20.0867C18.267 20.0434 18.2376 20.0145 18.2081 19.9711C18.1786 19.9277 18.1639 19.8843 18.1344 19.8554C18.105 19.812 18.0902 19.7687 18.0608 19.7398C18.0313 19.6964 17.9871 19.6675 17.9576 19.6386C17.9282 19.6096 17.8987 19.5663 17.8545 19.5373C17.8103 19.5084 17.8103 19.4506 17.7661 19.4217C17.7366 19.3928 17.6924 19.3639 17.663 19.3205C17.6335 19.2916 17.6041 19.2482 17.5746 19.2048C17.5451 19.1759 17.5157 19.1325 17.4862 19.0892C17.4567 19.0602 17.4125 19.0313 17.3683 19.0024C17.3389 18.9735 17.2947 18.9301 17.2652 18.9012C17.2357 18.8723 17.2063 18.8289 17.1621 18.8C17.1326 18.7711 17.0737 18.7422 17.0442 18.7133C17.0147 18.6843 16.9853 18.641 16.9411 18.612C16.9116 18.5831 16.8821 18.5398 16.8379 18.5108C16.8085 18.4819 16.7643 18.4386 16.7348 18.4096C16.7053 18.3807 16.6611 18.3518 16.6169 18.3229C16.5875 18.294 16.5285 18.2795 16.4991 18.2506C16.4549 18.2217 16.4254 18.1928 16.3959 18.1639C16.3665 18.1349 16.337 18.0916 16.2928 18.0626C16.2634 18.0337 16.2044 18.0193 16.175 17.9904C16.1455 17.9614 16.1013 17.9325 16.0571 17.9036C16.0129 17.8747 15.9982 17.8313 15.954 17.8024C15.9098 17.7735 15.8803 17.7446 15.8361 17.7157C15.7919 17.6867 15.7624 17.6578 15.7182 17.6289C15.674 17.6 15.6298 17.5855 15.6004 17.5566C15.5562 17.5277 15.512 17.5133 15.4678 17.4843C15.4236 17.4554 15.4088 17.412 15.3646 17.3831C15.3204 17.3542 15.291 17.3253 15.2468 17.2964C15.2026 17.2675 15.1584 17.253 15.1289 17.2241C15.0847 17.1952 15.0552 17.1663 15.0111 17.1373C14.9669 17.1084 14.9374 17.0795 14.8932 17.0506C14.849 17.0217 14.8048 17.0072 14.7753 16.9783C14.7311 16.9494 14.7017 16.9205 14.6575 16.8916C14.6133 16.8626 14.5838 16.8337 14.5396 16.8048C14.4954 16.7759 14.4512 16.7614 14.407 16.747C14.3628 16.7181 14.3186 16.7036 14.2744 16.6747C14.2302 16.6458 14.2007 16.6169 14.1565 16.588C14.1123 16.559 14.0829 16.5301 14.0387 16.5012C13.9945 16.4723 13.9503 16.4578 13.9208 16.4289C13.8766 16.4 13.8324 16.3855 13.7882 16.3711C13.744 16.3422 13.6998 16.3277 13.6704 16.2988C13.6262 16.2699 13.5967 16.241 13.5525 16.212C13.5083 16.1976 13.4641 16.1687 13.4199 16.1542C13.3757 16.1398 13.3315 16.1108 13.2873 16.0964C13.2431 16.0819 13.1989 16.053 13.1547 16.0386C13.1105 16.0241 13.0663 16.0096 13.0221 15.9807C12.9779 15.9663 12.9337 15.9518 12.8895 15.9373C12.8453 15.9229 12.8011 15.9084 12.7569 15.894C12.7127 15.8795 12.6685 15.8651 12.6243 15.8361C12.5801 15.8217 12.5359 15.8072 12.4917 15.7928C12.4475 15.7928 12.4033 15.7494 12.3591 15.7349C12.3149 15.7349 12.2707 15.7205 12.2265 15.706C12.1823 15.6916 12.1381 15.6771 12.0939 15.6626C12.0497 15.6482 11.9908 15.6626 11.9466 15.6337C11.9024 15.6337 11.8582 15.5904 11.814 15.5759C11.7698 15.5759 11.7256 15.5759 11.6667 15.547C11.6225 15.547 11.5783 15.5181 11.5193 15.5181C11.4751 15.5181 11.4309 15.4892 11.3867 15.4747C11.3425 15.4747 11.2983 15.4458 11.2541 15.4313C11.2099 15.4313 11.1657 15.4313 11.1068 15.4024C11.0626 15.4024 11.0184 15.3735 10.9742 15.359C10.93 15.359 10.8858 15.3301 10.8416 15.3157C10.7974 15.3157 10.7532 15.2867 10.6943 15.2867C10.6501 15.2867 10.6059 15.2578 10.5617 15.2434C10.5175 15.2434 10.4733 15.2145 10.4291 15.2C10.3849 15.1855 10.326 15.1855 10.2965 15.1711C10.2523 15.1566 10.2081 15.1422 10.1639 15.1277C10.1197 15.1133 10.0755 15.0843 10.0313 15.0699C9.98711 15.0554 9.94291 15.041 9.89871 15.012C9.85451 14.9976 9.81031 14.9831 9.76611 14.9542C9.72191 14.9398 9.69245 14.8964 9.64825 14.8675C9.60405 14.8386 9.55985 14.8386 9.51565 14.8096C9.47145 14.7807 9.44199 14.7518 9.39779 14.7229C9.35359 14.694 9.32412 14.6651 9.29466 14.6217C9.25046 14.5928 9.22099 14.5639 9.19153 14.5205C9.16206 14.4916 9.1326 14.4482 9.11786 14.4048C9.0884 14.3614 9.07366 14.3181 9.05893 14.2747C9.0442 14.2313 9 14.188 9 14.1446C9 14.1012 9 14.0578 9.02946 14C9.02946 13.9566 9.02946 13.9133 9.05893 13.8699C9.07366 13.8265 9.0884 13.7831 9.11786 13.7542C9.14733 13.7108 9.17679 13.6819 9.20626 13.653C9.23573 13.6241 9.25046 13.5807 9.29466 13.5373C9.32412 13.5084 9.35359 13.4651 9.38305 13.4361C9.41252 13.4072 9.45672 13.3783 9.48619 13.3494C9.51565 13.3205 9.55985 13.2916 9.58932 13.2626C9.63352 13.2337 9.66298 13.2048 9.70718 13.1904C9.75138 13.1614 9.79558 13.1614 9.83978 13.1325C9.88398 13.1036 9.91344 13.0892 9.95764 13.0747C10.0018 13.0602 10.0313 13.0313 10.0608 13.0169C10.0902 13.0024 10.1197 12.959 10.1639 12.9446C10.2081 12.9157 10.2523 12.9012 10.2965 12.8578C10.326 12.8289 10.3554 12.7711 10.3849 12.7422C10.4144 12.6988 10.4438 12.6699 10.4733 12.6265C10.5028 12.5831 10.547 12.5542 10.5764 12.5108C10.6059 12.4675 10.6206 12.4241 10.6501 12.3807C10.6796 12.3373 10.6796 12.2795 10.709 12.2361C10.7385 12.1928 10.7532 12.1494 10.7827 12.106C10.8122 12.0627 10.8416 12.0193 10.8711 11.9759C10.9006 11.9325 10.93 11.8892 10.9595 11.8602C10.989 11.8169 11.0184 11.7735 11.0479 11.7446C11.0773 11.7012 11.1215 11.6867 11.1657 11.6434C11.1952 11.6 11.2247 11.5566 11.2541 11.5277C11.2836 11.4988 11.3278 11.4554 11.3573 11.4265C11.3867 11.3976 11.4162 11.3542 11.4604 11.3108C11.4899 11.2819 11.5341 11.253 11.5783 11.2241C11.6225 11.1952 11.6667 11.1952 11.7109 11.1663C11.7551 11.1374 11.7845 11.1229 11.8435 11.094C11.8877 11.0795 11.9319 11.0506 11.9761 11.0361C12.0203 11.0217 12.0645 11.0072 12.1234 10.9928C12.1676 10.9928 12.2118 10.9639 12.256 10.9494C12.3002 10.9494 12.3591 10.9349 12.4033 10.9205C12.4475 10.9205 12.5064 10.9205 12.5359 10.8916C12.5801 10.8916 12.6243 10.8626 12.6685 10.8482C12.7127 10.8337 12.7569 10.8048 12.7864 10.7904C12.8306 10.7614 12.8748 10.747 12.9042 10.7181C12.9484 10.6892 12.9632 10.6458 12.9926 10.6169C13.0221 10.588 13.0516 10.5446 13.0958 10.5157C13.1252 10.4867 13.1547 10.4434 13.1989 10.4289C13.2284 10.4145 13.2873 10.4 13.3315 10.3855C13.3757 10.3855 13.4199 10.3566 13.4641 10.3566C13.523 10.3566 13.5672 10.3277 13.6114 10.3133C13.6703 10.3133 13.7293 10.3133 13.7735 10.3133C13.8324 10.3133 13.8913 10.2843 13.9208 10.2699C13.965 10.2554 14.0092 10.241 14.0681 10.1976C14.0976 10.1687 14.1271 10.1398 14.186 10.0964C14.2155 10.0675 14.2597 10.0386 14.3039 10.0096C14.3481 9.98072 14.3775 9.95181 14.4217 9.92289C14.4659 9.89398 14.5249 9.87952 14.5543 9.86506C14.5985 9.8506 14.6575 9.83614 14.6869 9.82169C14.7311 9.82169 14.7753 9.77831 14.8195 9.76385C14.8637 9.76385 14.9227 9.76385 14.9669 9.7494C15.011 9.7494 15.0552 9.70602 15.0994 9.69157C15.1436 9.69157 15.1878 9.66265 15.232 9.63373C15.2762 9.63373 15.3204 9.60482 15.3646 9.59036C15.4088 9.5759 15.453 9.56145 15.512 9.54699C15.5562 9.53253 15.5856 9.48916 15.6298 9.4747C15.674 9.46024 15.7182 9.44578 15.7624 9.43132C15.8066 9.41687 15.8508 9.40241 15.895 9.37349C15.9392 9.35903 15.9834 9.33012 16.0276 9.31566C16.0718 9.3012 16.1308 9.3012 16.175 9.28675C16.2192 9.27229 16.2634 9.25783 16.3075 9.22892C16.3517 9.21446 16.3959 9.18554 16.4401 9.15663C16.4843 9.14217 16.5285 9.11325 16.5727 9.0988C16.6169 9.06988 16.6611 9.05542 16.7053 9.04096C16.7495 9.01205 16.779 8.98313 16.8232 8.95422C16.8674 8.9253 16.8969 8.89639 16.9411 8.86747C16.9705 8.83855 17.0147 8.80964 17.0589 8.78072C17.1031 8.75181 17.1326 8.72289 17.1768 8.69398C17.221 8.66506 17.2652 8.6506 17.3094 8.62169C17.3536 8.59277 17.3831 8.5494 17.4273 8.53494C17.4715 8.50602 17.5157 8.49157 17.5599 8.47711C17.6041 8.46265 17.6483 8.43373 17.6924 8.41928C17.7366 8.40482 17.7661 8.36145 17.8103 8.34699C17.8545 8.33253 17.8987 8.31807 17.9429 8.30361C17.9871 8.28916 18.0313 8.2747 18.0755 8.26024C18.1197 8.26024 18.1639 8.24578 18.2081 8.23133C18.2523 8.23133 18.2965 8.20241 18.3407 8.18795C18.3849 8.18795 18.4438 8.18795 18.488 8.18795C18.5322 8.18795 18.5764 8.15903 18.6354 8.15903C18.6796 8.15903 18.7385 8.15903 18.7827 8.15903C18.8269 8.15903 18.8858 8.15903 18.93 8.15903C18.9742 8.15903 19.0331 8.15903 19.0773 8.15903C19.1215 8.15903 19.1805 8.15903 19.2247 8.15903C19.2689 8.15903 19.3278 8.15903 19.372 8.15903C19.4162 8.15903 19.4751 8.13012 19.5193 8.13012C19.5635 8.13012 19.6225 8.13012 19.6667 8.13012C19.7109 8.13012 19.7698 8.11566 19.814 8.1012C19.8582 8.1012 19.9171 8.08675 19.9613 8.07229C20.0055 8.07229 20.0645 8.07229 20.1087 8.07229C20.1529 8.07229 20.1971 8.04337 20.2413 8.02892C20.2855 8.02892 20.3444 8.02892 20.3886 8.02892C20.4328 8.02892 20.4917 8.02892 20.5359 8.02892C20.5801 8.02892 20.639 8 20.6832 8C20.7274 8 20.7864 8 20.8306 8.01446C20.8748 8.01446 20.9337 8.02891 20.9779 8.04337C21.0221 8.04337 21.081 8.04337 21.1252 8.05783C21.1694 8.05783 21.2136 8.08675 21.2578 8.1012C21.302 8.11566 21.3462 8.13012 21.3904 8.15903C21.4346 8.18795 21.4788 8.20241 21.5083 8.23133C21.5378 8.26024 21.5819 8.28916 21.5967 8.33253C21.6114 8.3759 21.6114 8.41928 21.6261 8.47711C21.6261 8.52048 21.6409 8.56386 21.6556 8.62169C21.6556 8.66506 21.6556 8.70843 21.6556 8.76626C21.6556 8.80964 21.6556 8.85301 21.6556 8.91084C21.6556 8.95422 21.6556 8.99759 21.6556 9.05542C21.6556 9.09879 21.6556 9.14217 21.6556 9.2C21.6556 9.24337 21.6261 9.28675 21.6261 9.34458C21.6261 9.38795 21.6261 9.43132 21.6261 9.48915C21.6261 9.53253 21.6261 9.5759 21.6261 9.63373C21.6261 9.67711 21.6261 9.72048 21.6261 9.77831C21.6261 9.82169 21.6114 9.86506 21.6114 9.92289C21.6114 9.96626 21.6114 10.0241 21.6114 10.0675C21.6114 10.1108 21.582 10.1542 21.582 10.212C21.582 10.2554 21.582 10.3133 21.582 10.3566C21.582 10.4 21.582 10.4578 21.582 10.5012C21.582 10.5446 21.5672 10.6024 21.5672 10.6458C21.5672 10.6892 21.5672 10.7325 21.5672 10.7904C21.5672 10.8337 21.5672 10.8916 21.5672 10.9349C21.5672 10.9783 21.5672 11.0361 21.5672 11.0795C21.5672 11.1229 21.5672 11.1807 21.5672 11.2241C21.5672 11.2675 21.5672 11.3253 21.5672 11.3687C21.5672 11.412 21.5672 11.4699 21.5672 11.5133C21.5672 11.5566 21.5672 11.6145 21.5672 11.6578C21.5672 11.7012 21.5672 11.759 21.5672 11.8024C21.5672 11.8458 21.5672 11.9036 21.5672 11.947C21.5672 11.9904 21.5672 12.0482 21.5672 12.0916C21.5672 12.1349 21.5672 12.1928 21.5672 12.2361C21.5672 12.2795 21.5672 12.3373 21.5672 12.3807C21.5672 12.4241 21.5672 12.4819 21.5672 12.5253C21.5672 12.5687 21.5672 12.6265 21.5672 12.6699C21.5672 12.7133 21.5672 12.7711 21.582 12.8145C21.582 12.8578 21.582 12.9157 21.582 12.959C21.582 13.0024 21.5819 13.0602 21.5967 13.1036C21.5967 13.1614 21.5967 13.2048 21.5967 13.2482C21.5967 13.306 21.6114 13.3494 21.6261 13.3928C21.6409 13.4651 21.6556 13.5229 21.6704 13.5229C21.6998 13.5229 21.7293 13.494 21.7735 13.4217C21.7882 13.3928 21.8177 13.3494 21.8471 13.306C21.8619 13.2627 21.8766 13.2193 21.8913 13.1759C21.9061 13.1325 21.9355 13.1036 21.965 13.0458C21.9797 13.0024 21.9945 12.959 22.0092 12.9157C22.0239 12.8723 22.0681 12.8434 22.0829 12.8C22.0976 12.7566 22.0976 12.7133 22.1123 12.6699C22.1271 12.6265 22.1418 12.5831 22.1713 12.5398C22.186 12.4964 22.2007 12.453 22.2155 12.4096C22.2302 12.3663 22.2597 12.3229 22.2744 12.2795C22.2891 12.2361 22.3039 12.1928 22.3186 12.1494C22.3333 12.106 22.3481 12.0626 22.3481 12.0193C22.3628 11.9759 22.407 11.947 22.4217 11.9036C22.4365 11.8602 22.4365 11.8169 22.4512 11.7735C22.4659 11.7301 22.4954 11.6867 22.5101 11.6434C22.5249 11.6 22.5396 11.5566 22.5543 11.5133C22.5691 11.4699 22.5838 11.4265 22.5985 11.3831C22.6133 11.3398 22.628 11.2964 22.6427 11.253C22.6575 11.2096 22.6869 11.1663 22.7017 11.1229C22.7164 11.0795 22.7164 11.0361 22.7311 10.9928C22.7459 10.9494 22.7753 10.906 22.7753 10.8626C22.7901 10.8193 22.8048 10.7759 22.8195 10.7325C22.8343 10.6892 22.849 10.6458 22.8637 10.6024C22.8785 10.559 22.8932 10.5157 22.9079 10.4723C22.9227 10.4289 22.9521 10.3855 22.9668 10.3422C22.9816 10.2988 22.9963 10.2554 23.0111 10.212C23.0258 10.1687 23.0405 10.1253 23.07 10.0819C23.07 10.0386 23.0847 9.99518 23.0994 9.95181C23.1142 9.90843 23.1436 9.86506 23.1584 9.82169C23.1731 9.77831 23.1584 9.72048 23.1878 9.67711C23.2026 9.63373 23.2468 9.59036 23.2615 9.54699C23.2762 9.50361 23.2762 9.44578 23.3057 9.41687C23.3204 9.37349 23.3352 9.31566 23.3499 9.28675C23.3646 9.22891 23.3941 9.2 23.4088 9.17108C23.4236 9.12771 23.453 9.08434 23.4825 9.04096C23.512 8.99759 23.512 8.93976 23.5414 8.91084C23.5709 8.86747 23.6151 8.83855 23.6446 8.80964C23.674 8.76626 23.7182 8.73735 23.7477 8.70843C23.7919 8.67952 23.8214 8.6506 23.8656 8.63615C23.9098 8.62169 23.954 8.62169 24.0129 8.62169C24.0571 8.62169 24.1013 8.62169 24.1602 8.62169C24.2044 8.62169 24.2486 8.62169 24.3075 8.63615C24.3517 8.63615 24.3959 8.6506 24.4549 8.66506C24.4991 8.66506 24.558 8.66506 24.6022 8.69398C24.6464 8.69398 24.6906 8.72289 24.7348 8.75181C24.779 8.76627 24.8232 8.79518 24.8674 8.80964C24.9116 8.83855 24.9558 8.83855 25 8.86747C25.0442 8.89639 25.0737 8.93976 25.1031 8.95422C25.1473 8.98313 25.1915 9.01205 25.221 9.0265C25.2652 9.05542 25.2947 9.08434 25.3389 9.11325C25.3831 9.14217 25.4273 9.17108 25.4567 9.18554C25.5009 9.21446 25.5304 9.25783 25.5599 9.28675C25.6041 9.31566 25.6335 9.34458 25.6777 9.37349C25.7219 9.40241 25.7661 9.41687 25.8103 9.43132C25.8545 9.46024 25.8987 9.4747 25.9429 9.4747C25.9871 9.4747 26.046 9.4747 26.0902 9.48915C26.1344 9.50361 26.1639 9.54699 26.2081 9.59036C26.2523 9.61928 26.2965 9.64819 26.326 9.69157C26.3554 9.73494 26.3849 9.77831 26.3996 9.82169C26.4144 9.86506 26.4291 9.92289 26.4291 9.96626C26.4291 10.0096 26.4291 10.0675 26.4291 10.1253C26.4291 10.1831 26.4291 10.2265 26.4291 10.2554C26.4586 10.2843 26.5028 10.3133 26.547 10.3422C26.5912 10.3566 26.6354 10.3711 26.6796 10.3855C26.7238 10.3855 26.768 10.3855 26.8122 10.4C26.8564 10.4 26.9006 10.4145 26.9447 10.4289C26.9889 10.4289 27.0331 10.4578 27.0773 10.4578C27.1215 10.4723 27.1657 10.5012 27.2099 10.5157C27.2541 10.5301 27.2983 10.559 27.3278 10.588C27.372 10.6169 27.4015 10.6458 27.4309 10.6747C27.4751 10.7036 27.5193 10.7325 27.5488 10.7614C27.5783 10.7904 27.6225 10.8337 27.6519 10.8626C27.6814 10.8916 27.7256 10.9349 27.7551 10.9639C27.7845 10.9928 27.814 11.0506 27.8435 11.0795C27.8729 11.1229 27.9024 11.1518 27.9319 11.1952C27.9613 11.2386 27.9908 11.2819 28.0203 11.3108C28.0497 11.3542 28.0939 11.3687 28.1381 11.412C28.1676 11.4554 28.1823 11.4988 28.2265 11.5277C28.256 11.5566 28.3002 11.6 28.3297 11.6289C28.3591 11.6578 28.4033 11.6867 28.4475 11.7157C28.4917 11.7446 28.5212 11.788 28.5654 11.8024C28.6096 11.8313 28.6538 11.8458 28.698 11.8602C28.7422 11.8747 28.7864 11.8892 28.8306 11.9181C28.8748 11.9325 28.919 11.9614 28.9632 11.9904C29.0074 12.0193 29.0516 12.0337 29.081 12.0626C29.1252 12.0916 29.1547 12.106 29.1989 12.1494C29.2284 12.1783 29.2726 12.2072 29.302 12.2506C29.3315 12.2795 29.3462 12.3374 29.3904 12.3663C29.4199 12.3952 29.4641 12.4241 29.4936 12.4675C29.523 12.5108 29.5378 12.5542 29.5672 12.5976C29.5967 12.641 29.6114 12.6843 29.6409 12.7277C29.6704 12.7711 29.6998 12.8 29.7146 12.8434C29.744 12.8867 29.7587 12.9301 29.7882 12.959C29.8177 13.0024 29.8619 13.0169 29.8913 13.0602C29.9208 13.1036 29.9503 13.1325 29.9797 13.1614C30.0239 13.1904 30.0681 13.2048 30.0976 13.2337C30.1418 13.2626 30.1713 13.2916 30.2155 13.3205C30.2597 13.3349 30.3039 13.3494 30.3481 13.3639C30.3923 13.3639 30.4365 13.3783 30.4807 13.3928C30.5249 13.3928 30.5543 13.4361 30.6133 13.4506C30.6575 13.4651 30.7017 13.4795 30.7459 13.5084C30.7901 13.5229 30.8343 13.5373 30.8785 13.5663C30.9227 13.5952 30.9521 13.6241 30.9816 13.653C31.0258 13.6819 31.0552 13.7108 31.0994 13.7398C31.1436 13.7687 31.1731 13.7976 31.2173 13.8265C31.2468 13.8554 31.291 13.8843 31.3204 13.9277C31.3499 13.9566 31.3794 14 31.4236 14.0434C31.4678 14.0867 31.4825 14.1157 31.512 14.159C31.5414 14.2024 31.5856 14.2313 31.6151 14.2747C31.6446 14.3181 31.6593 14.3614 31.6888 14.4048C31.7182 14.4482 31.7477 14.4771 31.7772 14.5205C31.8066 14.5639 31.8214 14.6072 31.8508 14.6506C31.8803 14.694 31.9098 14.7229 31.954 14.7663C31.9834 14.8096 32.0129 14.8386 32.0571 14.8675C32.0866 14.8964 32.116 14.9398 32.1602 14.9831C32.1897 15.012 32.2192 15.0554 32.2634 15.0988C32.2928 15.1422 32.337 15.1711 32.3665 15.2C32.3959 15.2434 32.4107 15.2867 32.4401 15.3301C32.4696 15.3735 32.4843 15.4169 32.4991 15.4602C32.5138 15.5036 32.5433 15.547 32.558 15.5904C32.5727 15.6337 32.5727 15.6916 32.5875 15.7349C32.6022 15.7783 32.6169 15.8217 32.6317 15.8795C32.6317 15.9229 32.6611 15.9807 32.6611 16.0241C32.6611 16.0675 32.6906 16.1108 32.7053 16.1687C32.7053 16.2265 32.7053 16.2699 32.7053 16.3133C32.7053 16.3711 32.7053 16.4145 32.7053 16.4578C32.7053 16.5157 32.7348 16.559 32.7495 16.588C32.7643 16.6313 32.7937 16.6747 32.8085 16.7181C32.8379 16.747 32.8674 16.7904 32.8969 16.8337C32.9263 16.8626 32.9411 16.906 32.9558 16.9639C32.9558 17.0072 32.9705 17.0506 32.9853 17.1084C32.9853 17.1518 33 17.1952 33 17.253C33 17.2964 32.9705 17.3398 32.9705 17.3976C32.9705 17.441 32.9705 17.4843 32.9705 17.5422C32.9705 17.5855 32.9411 17.6289 32.9411 17.6723C32.9411 17.7157 32.9411 17.7735 32.9263 17.8169C32.9263 17.8602 32.8821 17.9036 32.8674 17.9325C32.8527 17.9759 32.8527 18.0337 32.8232 18.0626C32.7937 18.106 32.7643 18.1349 32.7348 18.1783C32.7053 18.2072 32.6464 18.2217 32.6169 18.2361C32.5727 18.2651 32.5433 18.2795 32.4844 18.294C32.4402 18.294 32.396 18.3084 32.3518 18.3229C32.3076 18.3229 32.2634 18.3373 32.2192 18.3373C32.175 18.3373 32.1308 18.3518 32.0866 18.3518C32.0424 18.3518 31.9982 18.3518 31.9392 18.3518C31.895 18.3518 31.8508 18.3663 31.8066 18.3663C31.7624 18.3663 31.7182 18.3663 31.6593 18.3663C31.6151 18.3663 31.5709 18.3663 31.5267 18.3663C31.4825 18.3663 31.4383 18.3663 31.3794 18.3663C31.3352 18.3663 31.291 18.3663 31.2468 18.3663C31.2026 18.3663 31.1584 18.3663 31.1142 18.3663C31.07 18.3663 31.0258 18.3807 30.9816 18.3807C30.9374 18.3807 30.8932 18.3807 30.8343 18.3807C30.7901 18.3807 30.7459 18.3952 30.7017 18.4096C30.6575 18.4096 30.6133 18.4096 30.5691 18.4096C30.5249 18.4096 30.4807 18.4096 30.4217 18.4096C30.3775 18.4096 30.3333 18.4096 30.2744 18.4241C30.2007 18.4241 30.2302 18.4241 30.1271 18.4241C30.0829 18.4241 30.0387 18.4096 29.9797 18.4241C29.9355 18.4241 29.8913 18.4386 29.8324 18.453C29.7882 18.453 29.744 18.453 29.6851 18.453C29.6409 18.453 29.5967 18.453 29.5378 18.453C29.4936 18.453 29.4494 18.453 29.3904 18.4675C29.3462 18.4675 29.2873 18.4675 29.2431 18.4675C29.1989 18.4675 29.1547 18.4964 29.1105 18.5108C29.0663 18.5108 29.0221 18.5253 28.9632 18.5253C28.919 18.5253 28.8748 18.5253 28.8158 18.5398C28.7716 18.5398 28.7274 18.5542 28.6685 18.5687C28.6243 18.5687 28.5801 18.5976 28.5359 18.5976C28.4917 18.5976 28.4475 18.5976 28.3886 18.6265C28.3444 18.6265 28.3002 18.641 28.2413 18.6554C28.1971 18.6554 28.1529 18.6843 28.1087 18.6988C28.0645 18.6988 28.0203 18.7277 27.9761 18.7277C27.9319 18.7277 27.8877 18.7422 27.8435 18.7566C27.7993 18.7566 27.7551 18.7566 27.6961 18.7855C27.6519 18.7855 27.6077 18.8145 27.5635 18.8289C27.5193 18.8434 27.4751 18.8723 27.4309 18.8867C27.3867 18.9012 27.3425 18.9157 27.2983 18.9301C27.2541 18.9301 27.2099 18.959 27.1657 18.9735C27.1215 18.9735 27.0773 18.988 27.0331 19.0024C26.989 19.0169 26.9448 19.0313 26.9006 19.0602C26.8564 19.0747 26.8122 19.1036 26.768 19.1181C26.7238 19.1325 26.6796 19.1614 26.6354 19.1759C26.5912 19.1904 26.547 19.2048 26.5028 19.2337C26.4586 19.2482 26.4144 19.2626 26.3702 19.2771C26.326 19.2916 26.2818 19.306 26.2376 19.3349C26.1934 19.3494 26.1492 19.3783 26.105 19.4072C26.0608 19.4217 26.0166 19.4506 25.9724 19.4651C25.9282 19.4795 25.884 19.494 25.8398 19.5229C25.7956 19.5373 25.7514 19.5663 25.7072 19.5952C25.663 19.6096 25.6188 19.6386 25.5746 19.653C25.5304 19.6675 25.4862 19.6819 25.442 19.7108C25.3978 19.7398 25.3683 19.7687 25.3241 19.7831C25.2799 19.7976 25.2357 19.812 25.1915 19.841C25.1473 19.8699 25.1179 19.8988 25.0737 19.9277C25.0295 19.9566 24.9853 19.9566 24.9411 19.9855C24.8969 20.0145 24.8527 20.0289 24.8085 20.0578C24.7643 20.0867 24.7348 20.1157 24.6906 20.1446C24.6464 20.1735 24.6022 20.1879 24.5727 20.2169C24.5285 20.2458 24.4991 20.2747 24.4549 20.2892C24.4107 20.3181 24.3812 20.347 24.337 20.3614C24.2928 20.3904 24.2634 20.4193 24.2192 20.4337C24.175 20.4627 24.1455 20.4916 24.1013 20.5205C24.0571 20.5494 24.0276 20.5783 23.9834 20.6072C23.9392 20.6361 23.895 20.6506 23.8656 20.6795C23.8214 20.7084 23.7919 20.7373 23.7477 20.7663C23.7035 20.7952 23.6593 20.8096 23.6151 20.8386C23.5709 20.8675 23.5562 20.9108 23.512 20.9398C23.4678 20.9687 23.4383 20.9976 23.3941 21.0265C23.3499 21.0554 23.3204 21.0843 23.2762 21.1133C23.232 21.1422 23.2026 21.1711 23.1584 21.2C23.1142 21.2289 23.0847 21.2578 23.0405 21.2867C22.9963 21.3157 22.9521 21.3301 22.9227 21.359C22.8785 21.388 22.849 21.4313 22.8195 21.4458C22.7753 21.4747 22.7311 21.4892 22.7017 21.5181C22.6575 21.547 22.628 21.5759 22.5838 21.6048C22.5396 21.6337 22.5101 21.6626 22.4659 21.6916C22.4217 21.7205 22.3923 21.7494 22.3481 21.7783C22.3039 21.8072 22.2744 21.8506 22.2449 21.8795C22.2007 21.9084 22.1565 21.9229 22.1271 21.9518C22.0829 21.9807 22.0534 22.0096 22.0092 22.0386C21.965 22.0675 21.9355 22.1108 21.9061 22.1398C21.8619 22.1687 21.8324 22.1976 21.7882 22.2265C21.744 22.2554 21.7146 22.2843 21.6704 22.3133C21.6262 22.3422 21.5967 22.3711 21.5672 22.4145C21.523 22.4434 21.5083 22.4867 21.4641 22.5157C21.4199 22.5446 21.3904 22.5735 21.3462 22.6024C21.3168 22.6313 21.2873 22.6747 21.2578 22.7036C21.2284 22.7325 21.1842 22.7759 21.1547 22.8048C21.1252 22.8337 21.081 22.8626 21.0516 22.906C21.0221 22.9349 20.9926 22.9783 20.9484 23.0072C20.919 23.0361 20.8895 23.0795 20.86 23.1229C20.8306 23.1518 20.8011 23.1952 20.7716 23.2386C20.7422 23.2819 20.7127 23.3108 20.6832 23.3542C20.6538 23.3976 20.6243 23.4265 20.5948 23.4699C20.5654 23.5133 20.5506 23.5422 20.5212 23.5855C20.4917 23.6289 20.4622 23.6578 20.4328 23.7012C20.4033 23.7301 20.3738 23.7735 20.3444 23.8024C20.3149 23.8313 20.3002 23.8892 20.2707 23.9181C20.2413 23.9614 20.2118 23.9904 20.1823 24.0337C20.1529 24.0771 20.1234 24.106 20.0939 24.1494C20.0645 24.1928 20.0497 24.2361 20.0203 24.2795C19.9908 24.3229 19.9613 24.3518 19.9319 24.3952C19.9024 24.4241 19.8729 24.4675 19.8435 24.4964C19.814 24.5398 19.7845 24.5687 19.7698 24.612C19.7403 24.6554 19.6961 24.6843 19.6667 24.7133C19.6372 24.7566 19.6225 24.8 19.593 24.8289C19.5635 24.8578 19.5341 24.9012 19.5046 24.9301C19.4751 24.9735 19.4457 25.0024 19.4162 25.0458C19.3867 25.0892 19.372 25.1181 19.3425 25.1614C19.3131 25.1904 19.2836 25.2337 19.2541 25.2771C19.2247 25.3205 19.2099 25.3639 19.1805 25.3928C19.151 25.4217 19.1068 25.4506 19.0773 25.494C19.0479 25.5229 19.0184 25.5663 18.9889 25.6096C18.9595 25.6386 18.9448 25.6964 18.9153 25.7253C18.8858 25.7542 18.8416 25.7831 18.8122 25.8265C18.7827 25.8554 18.7532 25.8988 18.7238 25.9422C18.6943 25.9711 18.6648 26.0145 18.6206 26.0434C18.5912 26.0723 18.5617 26.1157 18.5322 26.159C18.5028 26.2024 18.4733 26.2313 18.4438 26.2602C18.4144 26.2892 18.3849 26.3325 18.3554 26.3759C18.326 26.4048 18.2965 26.4482 18.2523 26.4771C18.2228 26.506 18.1934 26.5494 18.1639 26.5928C18.1344 26.6217 18.0902 26.6506 18.0608 26.694C18.0313 26.7229 18.0018 26.7663 17.9576 26.7952C17.9282 26.8241 17.8987 26.8675 17.8692 26.8964C17.8398 26.9253 17.8103 26.9687 17.7808 26.9976C17.7514 27.0265 17.7072 27.0554 17.663 27.0843C17.6335 27.1133 17.6041 27.1566 17.5746 27.2C17.5451 27.2289 17.5009 27.2578 17.4715 27.3012C17.442 27.3301 17.3978 27.3735 17.3683 27.4024C17.3389 27.4313 17.3094 27.4747 17.2652 27.5036C17.2357 27.5325 17.1915 27.5614 17.1621 27.6048C17.1326 27.6337 17.0884 27.6771 17.0589 27.706C17.0295 27.7349 16.9705 27.7639 16.9411 27.7928C16.9116 27.8217 16.8821 27.8651 16.8527 27.9084C16.8232 27.9373 16.779 27.9663 16.7495 27.9952C16.7201 28.0241 16.6611 28.053 16.6317 28.0819C16.6022 28.1108 16.5727 28.1542 16.5285 28.1831C16.4991 28.212 16.4549 28.241 16.4107 28.2699C16.3812 28.2988 16.337 28.3277 16.3075 28.3711C16.2781 28.4 16.2339 28.4289 16.2044 28.4578C16.175 28.4867 16.1308 28.5157 16.1013 28.559C16.0718 28.588 16.0276 28.6169 15.9834 28.6458C15.9392 28.6747 15.9245 28.7181 15.8803 28.747C15.8361 28.7759 15.8066 28.8048 15.7772 28.8337C15.733 28.8626 15.7035 28.8916 15.6593 28.9205C15.6298 28.9494 15.5709 28.9639 15.5414 28.9928C15.4972 29.0217 15.4678 29.0506 15.4383 29.0795C15.3941 29.1084 15.3646 29.1518 15.3352 29.1807C15.291 29.2096 15.2468 29.2241 15.2173 29.253C15.1731 29.2819 15.1436 29.3108 15.0994 29.3398C15.0552 29.3687 15.0258 29.3976 14.9963 29.4265C14.9521 29.4554 14.9079 29.4699 14.8785 29.4988C14.8343 29.5277 14.8048 29.5566 14.7606 29.5855C14.7164 29.6145 14.6869 29.6434 14.6427 29.6723C14.5985 29.7012 14.5543 29.7157 14.5249 29.7446C14.4807 29.7735 14.4365 29.788 14.3923 29.8169C14.3481 29.8458 14.3186 29.8747 14.2744 29.9036C14.2302 29.9325 14.186 29.947 14.1418 29.9759C14.0976 30.0048 14.0681 30.0337 14.0239 30.0482C13.9797 30.0771 13.9355 30.0916 13.9061 30.1205C13.8619 30.1494 13.8324 30.1783 13.7882 30.1928C13.744 30.2217 13.7145 30.2361 13.6704 30.2651C13.6262 30.294 13.5967 30.3229 13.5525 30.3518C13.5083 30.3807 13.4641 30.3952 13.4199 30.4241C13.3757 30.453 13.3315 30.4675 13.2873 30.4964C13.2431 30.5253 13.1989 30.5398 13.1547 30.5687C13.1105 30.5976 13.0663 30.612 13.0368 30.641C12.9926 30.6699 12.9484 30.6988 12.919 30.7133C12.8748 30.7422 12.8306 30.7566 12.7864 30.7711C12.7422 30.8 12.698 30.8145 12.6538 30.8434C12.6096 30.8723 12.5801 30.9012 12.5359 30.9157C12.4917 30.9301 12.4475 30.9446 12.4033 30.9735C12.3591 31.0024 12.3149 31.0169 12.2707 31.0313C12.2265 31.0458 12.1971 31.0892 12.1529 31.1036C12.1087 31.1181 12.0645 31.1325 12.0203 31.1614C11.9761 31.1759 11.9319 31.2048 11.8877 31.2193C11.8435 31.2337 11.7993 31.2771 11.7551 31.2916C11.7109 31.306 11.6667 31.3205 11.6225 31.3494C11.5783 31.3639 11.5341 31.3928 11.4899 31.4072C11.4457 31.4217 11.4015 31.4506 11.3573 31.4795C11.3131 31.494 11.2689 31.5084 11.2247 31.5229C11.1805 31.5373 11.1363 31.5663 11.0921 31.5807C11.0479 31.5952 11.0037 31.6241 10.9595 31.6386C10.9153 31.653 10.8711 31.6819 10.8269 31.6964C10.7827 31.7108 10.7238 31.7108 10.6796 31.7398C10.6354 31.7542 10.5912 31.7831 10.547 31.7976C10.5028 31.812 10.4586 31.841 10.4144 31.8554C10.3702 31.8699 10.326 31.8699 10.2818 31.8988C10.2376 31.9133 10.1934 31.9566 10.1492 31.9711C10.105 31.9855 10.0608 31.9855 10.0166 32" stroke="var(--stroke-0, #3A4246)" stroke-width="2"/>
<circle id="Ellipse 165" cx="30.5" cy="27" r="2" stroke="var(--stroke-0, #3A4246)" stroke-width="2"/>
<circle id="Ellipse 166" cx="24" cy="31.5" r="1.5" fill="var(--fill-0, #3A4246)"/>
</g>
</svg>
