<svg preserveAspectRatio="none" width="100%" height="100%" overflow="visible" style="display: block;" viewBox="0 0 40 40" fill="none" xmlns="http://www.w3.org/2000/svg">
<g id="Group 10">
<g id="Rectangle 1">
</g>
<path id="Vector" d="M11 37V31H20V37M9.5 13H9.515M21.5 13H21.515M15.5 13H15.515M15.5 19H15.515M15.5 25H15.515M21.5 19H21.515M21.5 25H21.515M9.5 19H9.515M9.5 25H9.515M6.5 7H24.5C26.1569 7 27.5 8.34315 27.5 10V34C27.5 35.6569 26.1569 37 24.5 37H6.5C4.84315 37 3.5 35.6569 3.5 34V10C3.5 8.34315 4.84315 7 6.5 7Z" stroke="var(--stroke-0, #3A4246)" stroke-width="2" stroke-linecap="round" stroke-linejoin="round"/>
<rect id="Rectangle 4" x="19.5" y="13" width="18" height="14" rx="1" fill="var(--fill-0, #F6F6F3)" stroke="var(--stroke-0, #B8A676)" stroke-width="2"/>
<path id="Vector_2" d="M30.5 23H34.5M30.5 17H32.5V23M24.5 17C25.6046 17 26.5 17.8954 26.5 19V21C26.5 22.1046 25.6046 23 24.5 23C23.3954 23 22.5 22.1046 22.5 21V19C22.5 17.8954 23.3954 17 24.5 17Z" stroke="var(--stroke-0, #B8A676)" stroke-width="2" stroke-linecap="round" stroke-linejoin="round"/>
</g>
</svg>
