<svg preserveAspectRatio="none" width="100%" height="100%" overflow="visible" style="display: block;" viewBox="0 0 186.001 36" fill="none" xmlns="http://www.w3.org/2000/svg">
<g id="Frame 577">
<path id="Icon" d="M12.3985 1.37604C12.6448 0.874654 13.3563 0.874654 13.6026 1.37604L16.7907 7.8665C16.8885 8.0656 17.0775 8.2036 17.2962 8.23553L24.425 9.27632C24.9757 9.35672 25.1956 10.0367 24.7971 10.427L19.6386 15.4791C19.4804 15.6341 19.4082 15.8573 19.4456 16.0762L20.6633 23.2099C20.7574 23.761 20.1817 24.1812 19.6891 23.921L13.313 20.5529C13.1174 20.4496 12.8837 20.4496 12.6881 20.5529L6.31197 23.921C5.81942 24.1812 5.24374 23.761 5.33781 23.2099L6.55555 16.0762C6.5929 15.8573 6.5207 15.6341 6.36246 15.4791L1.20404 10.427C0.805556 10.0367 1.02544 9.35672 1.57614 9.27632L8.70489 8.23553C8.92357 8.2036 9.11262 8.0656 9.21041 7.8665L12.3985 1.37604Z" fill="var(--fill-0, #B8A676)" stroke="var(--stroke-0, #B8A676)" stroke-width="2" stroke-linejoin="round"/>
<path id="Icon_2" d="M52.3985 1.37604C52.6448 0.874654 53.3563 0.874654 53.6026 1.37604L56.7907 7.8665C56.8885 8.0656 57.0775 8.2036 57.2962 8.23553L64.425 9.27632C64.9757 9.35672 65.1956 10.0367 64.7971 10.427L59.6386 15.4791C59.4804 15.6341 59.4082 15.8573 59.4456 16.0762L60.6633 23.2099C60.7574 23.761 60.1817 24.1812 59.6891 23.921L53.313 20.5529C53.1174 20.4496 52.8837 20.4496 52.6881 20.5529L46.312 23.921C45.8194 24.1812 45.2437 23.761 45.3378 23.2099L46.5555 16.0762C46.5929 15.8573 46.5207 15.6341 46.3625 15.4791L41.204 10.427C40.8056 10.0367 41.0254 9.35672 41.5761 9.27632L48.7049 8.23553C48.9236 8.2036 49.1126 8.0656 49.2104 7.8665L52.3985 1.37604Z" fill="var(--fill-0, #B8A676)" stroke="var(--stroke-0, #B8A676)" stroke-width="2" stroke-linejoin="round"/>
<path id="Icon_3" d="M92.3985 1.37604C92.6448 0.874654 93.3563 0.874654 93.6026 1.37604L96.7907 7.8665C96.8885 8.0656 97.0775 8.2036 97.2962 8.23553L104.425 9.27632C104.976 9.35672 105.196 10.0367 104.797 10.427L99.6386 15.4791C99.4804 15.6341 99.4082 15.8573 99.4456 16.0762L100.663 23.2099C100.757 23.761 100.182 24.1812 99.6891 23.921L93.313 20.5529C93.1174 20.4496 92.8837 20.4496 92.6881 20.5529L86.312 23.921C85.8194 24.1812 85.2437 23.761 85.3378 23.2099L86.5555 16.0762C86.5929 15.8573 86.5207 15.6341 86.3625 15.4791L81.204 10.427C80.8056 10.0367 81.0254 9.35672 81.5761 9.27632L88.7049 8.23553C88.9236 8.2036 89.1126 8.0656 89.2104 7.8665L92.3985 1.37604Z" fill="var(--fill-0, #B8A676)" stroke="var(--stroke-0, #B8A676)" stroke-width="2" stroke-linejoin="round"/>
<path id="Icon_4" d="M132.398 1.37604C132.645 0.874654 133.356 0.874654 133.603 1.37604L136.791 7.8665C136.888 8.0656 137.078 8.2036 137.296 8.23553L144.425 9.27632C144.976 9.35672 145.196 10.0367 144.797 10.427L139.639 15.4791C139.48 15.6341 139.408 15.8573 139.446 16.0762L140.663 23.2099C140.757 23.761 140.182 24.1812 139.689 23.921L133.313 20.5529C133.117 20.4496 132.884 20.4496 132.688 20.5529L126.312 23.921C125.819 24.1812 125.244 23.761 125.338 23.2099L126.556 16.0762C126.593 15.8573 126.521 15.6341 126.362 15.4791L121.204 10.427C120.806 10.0367 121.025 9.35672 121.576 9.27632L128.705 8.23553C128.924 8.2036 129.113 8.0656 129.21 7.8665L132.398 1.37604Z" fill="var(--fill-0, #B8A676)" stroke="var(--stroke-0, #B8A676)" stroke-width="2" stroke-linejoin="round"/>
<path id="Icon_5" d="M172.398 1.37604C172.645 0.874654 173.356 0.874654 173.603 1.37604L176.791 7.8665C176.888 8.0656 177.078 8.2036 177.296 8.23553L184.425 9.27632C184.976 9.35672 185.196 10.0367 184.797 10.427L179.639 15.4791C179.48 15.6341 179.408 15.8573 179.446 16.0762L180.663 23.2099C180.757 23.761 180.182 24.1812 179.689 23.921L173.313 20.5529C173.117 20.4496 172.884 20.4496 172.688 20.5529L166.312 23.921C165.819 24.1812 165.244 23.761 165.338 23.2099L166.556 16.0762C166.593 15.8573 166.521 15.6341 166.362 15.4791L161.204 10.427C160.806 10.0367 161.025 9.35672 161.576 9.27632L168.705 8.23553C168.924 8.2036 169.113 8.0656 169.21 7.8665L172.398 1.37604Z" stroke="var(--stroke-0, #B3B09E)" stroke-width="2" stroke-linejoin="round"/>
</g>
</svg>
