<svg width="18" height="17" viewBox="0 0 18.0063 16.9991" fill="none" xmlns="http://www.w3.org/2000/svg">
<path d="M8.60178 1.24524C8.76596 0.918253 9.24035 0.918253 9.40453 1.24524L11.5299 5.47815C11.5951 5.608 11.7211 5.698 11.8669 5.71882L16.6194 6.3976C16.9866 6.45003 17.1332 6.89349 16.8675 7.14801L13.4286 10.4429C13.3231 10.5439 13.2749 10.6896 13.2998 10.8323L14.1117 15.4847C14.1744 15.8441 13.7906 16.1182 13.4622 15.9485L9.21144 13.7519C9.08104 13.6845 8.92527 13.6845 8.79487 13.7519L4.5441 15.9485C4.21573 16.1182 3.83195 15.8441 3.89466 15.4847L4.70649 10.8323C4.73139 10.6896 4.68325 10.5439 4.57776 10.4429L1.13881 7.14801C0.873157 6.89349 1.01975 6.45003 1.38688 6.3976L6.13938 5.71882C6.28517 5.698 6.4112 5.608 6.47639 5.47815L8.60178 1.24524Z" fill="white" stroke="white" stroke-width="2" stroke-linejoin="round"/>
</svg>
